<svg width="64" height="64" viewBox="0 0 64 64" fill="none" xmlns="http://www.w3.org/2000/svg">
<path fill-rule="evenodd" clip-rule="evenodd" d="M32 64C49.6731 64 64 49.6731 64 32C64 14.3269 49.6731 0 32 0C14.3269 0 0 14.3269 0 32C0 49.6731 14.3269 64 32 64ZM41.9829 14.907C42.4688 13.1809 40.7938 12.1602 39.264 13.2501L17.909 28.4633C16.2499 29.6453 16.5109 32 18.301 32H23.9243V31.9565H34.884L25.9539 35.1073L22.0171 49.0931C21.5312 50.8192 23.2061 51.8398 24.736 50.7499L46.091 35.5368C47.7501 34.3549 47.489 32 45.699 32H37.1714L41.9829 14.907Z" fill="#FF6500"/>
</svg>
