<svg width="119" height="32" viewBox="0 0 119 32" fill="none" xmlns="http://www.w3.org/2000/svg">
<path d="M44.9375 25V23.0312L53.8906 10.1875H44.8906V7.53906H57.8281V9.51953L48.875 22.3516H57.875V25H44.9375ZM61.5842 29.8984C61.1623 29.9062 60.7717 29.875 60.4123 29.8047C60.0608 29.7422 59.7756 29.668 59.5569 29.582L60.2834 27.1797L60.4358 27.2266C61.0608 27.3906 61.592 27.4023 62.0295 27.2617C62.4748 27.1211 62.8303 26.6953 63.0959 25.9844L63.3538 25.2812L58.6194 11.8984H61.8889L64.9006 21.8008H65.0413L68.0647 11.8984H71.3577L66.1077 26.582C65.8655 27.2773 65.5452 27.8711 65.1467 28.3633C64.7483 28.8633 64.2561 29.2422 63.6702 29.5C63.0842 29.7656 62.3889 29.8984 61.5842 29.8984ZM79.0161 11.8984V14.2891H71.2934V11.8984H79.0161ZM73.2153 25V10.668C73.2153 9.78516 73.3989 9.05078 73.7661 8.46484C74.1333 7.87891 74.6255 7.44141 75.2427 7.15234C75.8677 6.86328 76.5552 6.71875 77.3052 6.71875C77.8442 6.71875 78.3208 6.76172 78.7348 6.84766C79.1567 6.93359 79.4653 7.01172 79.6606 7.08203L79.0278 9.47266C78.9028 9.42578 78.7427 9.38281 78.5473 9.34375C78.352 9.29688 78.1294 9.27344 77.8794 9.27344C77.3091 9.27344 76.8989 9.41406 76.6489 9.69531C76.4067 9.97656 76.2856 10.375 76.2856 10.8906V25H73.2153ZM85.5378 25.2578C84.2566 25.2578 83.1472 24.9766 82.2097 24.4141C81.2722 23.8516 80.5456 23.0625 80.03 22.0469C79.5222 21.0312 79.2683 19.8516 79.2683 18.5078C79.2683 17.1562 79.5222 15.9727 80.03 14.957C80.5456 13.9336 81.2722 13.1406 82.2097 12.5781C83.1472 12.0156 84.2566 11.7344 85.5378 11.7344C86.8191 11.7344 87.9284 12.0156 88.8659 12.5781C89.8034 13.1406 90.53 13.9336 91.0456 14.957C91.5612 15.9727 91.8191 17.1562 91.8191 18.5078C91.8191 19.8516 91.5612 21.0312 91.0456 22.0469C90.53 23.0625 89.8034 23.8516 88.8659 24.4141C87.9284 24.9766 86.8191 25.2578 85.5378 25.2578ZM85.5378 22.7734C86.2487 22.7734 86.8347 22.5859 87.2956 22.2109C87.7566 21.8281 88.1003 21.3125 88.3269 20.6641C88.5612 20.0156 88.6784 19.2969 88.6784 18.5078C88.6784 17.7031 88.5612 16.9766 88.3269 16.3281C88.1003 15.6797 87.7566 15.168 87.2956 14.793C86.8347 14.4102 86.2487 14.2188 85.5378 14.2188C84.8425 14.2188 84.2605 14.4102 83.7917 14.793C83.323 15.168 82.9714 15.6797 82.737 16.3281C82.5105 16.9766 82.3972 17.7031 82.3972 18.5078C82.3972 19.2969 82.5105 20.0156 82.737 20.6641C82.9714 21.3125 83.323 21.8281 83.7917 22.2109C84.2605 22.5859 84.8425 22.7734 85.5378 22.7734ZM93.2783 25V11.8984H96.2666V14.1016H96.4072C96.6416 13.3359 97.0517 12.75 97.6377 12.3438C98.2236 11.9297 98.8916 11.7227 99.6416 11.7227C99.8056 11.7227 99.9931 11.7305 100.204 11.7461C100.423 11.7617 100.603 11.7812 100.743 11.8047V14.6406C100.61 14.5938 100.403 14.5547 100.122 14.5234C99.8408 14.4922 99.5713 14.4766 99.3134 14.4766C98.7431 14.4766 98.2353 14.5977 97.79 14.8398C97.3447 15.082 96.9931 15.4141 96.7353 15.8359C96.4853 16.2578 96.3603 16.75 96.3603 17.3125V25H93.2783ZM101.663 25V11.8984H104.745V25H101.663ZM103.21 10.0586C102.718 10.0586 102.296 9.89453 101.945 9.56641C101.593 9.23828 101.417 8.84375 101.417 8.38281C101.417 7.91406 101.593 7.51562 101.945 7.1875C102.296 6.85938 102.718 6.69531 103.21 6.69531C103.695 6.69531 104.112 6.85938 104.464 7.1875C104.816 7.51562 104.991 7.91016 104.991 8.37109C104.991 8.83984 104.816 9.23828 104.464 9.56641C104.112 9.89453 103.695 10.0586 103.21 10.0586ZM110.564 25.2695C109.728 25.2695 108.978 25.1211 108.314 24.8242C107.65 24.5195 107.126 24.0742 106.744 23.4883C106.361 22.9023 106.169 22.1797 106.169 21.3203C106.169 20.5859 106.306 19.9766 106.58 19.4922C106.853 19.0078 107.224 18.6211 107.693 18.332C108.169 18.043 108.705 17.8242 109.298 17.6758C109.892 17.5195 110.505 17.4102 111.138 17.3477C111.912 17.2617 112.537 17.1875 113.013 17.125C113.49 17.0625 113.833 16.9609 114.044 16.8203C114.263 16.6797 114.373 16.4609 114.373 16.1641V16.1055C114.373 15.4727 114.185 14.9805 113.81 14.6289C113.435 14.2773 112.888 14.1016 112.169 14.1016C111.412 14.1016 110.81 14.2656 110.365 14.5938C109.927 14.9219 109.63 15.3086 109.474 15.7539L106.603 15.3438C106.83 14.5469 107.205 13.8828 107.728 13.3516C108.251 12.8125 108.888 12.4102 109.638 12.1445C110.396 11.8711 111.232 11.7344 112.146 11.7344C112.771 11.7344 113.396 11.8086 114.021 11.957C114.646 12.0977 115.22 12.3398 115.744 12.6836C116.267 13.0273 116.685 13.4883 116.998 14.0664C117.31 14.6445 117.466 15.3672 117.466 16.2344V25H114.501V23.1953H114.408C114.22 23.5547 113.955 23.8945 113.611 24.2148C113.275 24.5273 112.853 24.7812 112.345 24.9766C111.845 25.1719 111.251 25.2695 110.564 25.2695ZM111.349 22.9961C111.974 22.9961 112.513 22.875 112.966 22.6328C113.419 22.3828 113.771 22.0547 114.021 21.6484C114.271 21.2344 114.396 20.7852 114.396 20.3008V18.7656C114.294 18.8438 114.13 18.918 113.904 18.9883C113.677 19.0508 113.419 19.1094 113.13 19.1641C112.841 19.2188 112.556 19.2656 112.275 19.3047C112.001 19.3438 111.763 19.375 111.56 19.3984C111.099 19.4609 110.685 19.5664 110.318 19.7148C109.958 19.8555 109.673 20.0508 109.462 20.3008C109.251 20.5508 109.146 20.875 109.146 21.2734C109.146 21.8438 109.353 22.2734 109.767 22.5625C110.181 22.8516 110.708 22.9961 111.349 22.9961Z" fill="white"/>
<path fill-rule="evenodd" clip-rule="evenodd" d="M16 32C24.8366 32 32 24.8366 32 16C32 7.16345 24.8366 0 16 0C7.16343 0 0 7.16345 0 16C0 24.8366 7.16343 32 16 32ZM20.9914 7.45348C21.2344 6.59044 20.3969 6.08011 19.632 6.62504L8.95449 14.2317C8.12497 14.8226 8.25545 16 9.15049 16H11.9622V15.9782H17.442L12.977 17.5537L11.0086 24.5466C10.7656 25.4096 11.603 25.9199 12.368 25.375L23.0455 17.7684C23.875 17.1774 23.7445 16 22.8495 16H18.5857L20.9914 7.45348Z" fill="#FF6500"/>
</svg>
