<svg width="24" height="24" viewBox="0 0 24 24" fill="none" xmlns="http://www.w3.org/2000/svg">
<path d="M12 24C5.3832 24 0 18.6168 0 12C0 5.3832 5.3844 0 12 0C18.6156 0 24 5.3832 24 12C24 18.6168 18.6168 24 12 24ZM12 2.4C6.7068 2.4 2.4 6.7068 2.4 12C2.4 17.2932 6.7068 21.6 12 21.6C17.2932 21.6 21.6 17.2932 21.6 12C21.6 6.7068 17.2932 2.4 12 2.4Z" fill="#FF6500"/>
<path d="M15.8484 11.3695H13.3476C13.2862 11.3695 13.2253 11.3574 13.1685 11.3339C13.1117 11.3103 13.0601 11.2759 13.0167 11.2324C12.9732 11.1889 12.9388 11.1374 12.9152 11.0806C12.8917 11.0238 12.8796 10.9629 12.8796 10.9015V4.84148C12.8796 4.36388 12.2472 4.19348 12.0072 4.60628L7.74601 11.9299C7.70468 12.001 7.68281 12.0817 7.68262 12.164C7.68243 12.2462 7.70391 12.3271 7.74492 12.3984C7.78592 12.4697 7.845 12.5289 7.91618 12.5701C7.98737 12.6113 8.06816 12.633 8.15041 12.6331H10.6512C10.7753 12.6331 10.8944 12.6824 10.9821 12.7702C11.0699 12.8579 11.1192 12.977 11.1192 13.1011V19.1599C11.1192 19.6375 11.7516 19.8079 11.9916 19.3951L16.2528 12.0715C16.2941 12.0004 16.316 11.9196 16.3162 11.8374C16.3164 11.7551 16.2949 11.6743 16.2539 11.603C16.2129 11.5317 16.1538 11.4724 16.0826 11.4312C16.0115 11.39 15.9307 11.3683 15.8484 11.3683V11.3695Z" fill="#FF6500"/>
</svg>
