<svg width="24" height="24" viewBox="0 0 24 24" fill="none" xmlns="http://www.w3.org/2000/svg">
<path d="M12 0C18.6 0 24 5.4 24 12C24 17.9333 19.6666 22.8662 14 23.8662L13.9316 23.8115C13.9543 23.8071 13.9773 23.8043 14 23.7998V15.333H16.667L17.2002 11.999H14V9.66602C14 8.73272 14.3333 7.99909 15.7998 7.99902H17.333V4.93262C16.4665 4.79932 15.5335 4.66605 14.667 4.66602C11.9337 4.66602 10 6.33301 10 9.33301V11.999H7V15.333H10V23.7998C10.0224 23.8043 10.045 23.8072 10.0674 23.8115L10 23.8662C4.33337 22.8662 3.48261e-07 17.9333 0 12C0 5.4 5.4 1.95076e-07 12 0Z" fill="white"/>
</svg>
