<svg width="21" height="19" viewBox="0 0 21 19" fill="none" xmlns="http://www.w3.org/2000/svg">
<path fill-rule="evenodd" clip-rule="evenodd" d="M18.5442 4.52428C18.552 4.72415 18.5546 4.92394 18.5546 5.12381C18.5546 11.1835 14.2919 18.179 6.49695 18.179C4.10247 18.179 1.87596 17.4158 0 16.1167C0.331609 16.153 0.668389 16.1803 1.01033 16.1803C2.99568 16.1803 4.82426 15.4443 6.27473 14.2088C4.4203 14.1815 2.85443 12.846 2.31438 11.029C2.57364 11.0835 2.84063 11.1109 3.11367 11.1109C3.49868 11.1109 3.87249 11.0564 4.2308 10.9474C2.29024 10.5295 0.828596 8.67621 0.828596 6.4504C0.828596 6.42314 0.828596 6.41401 0.828596 6.39584C1.40051 6.73198 2.05511 6.94083 2.75019 6.96808C1.61153 6.14135 0.86303 4.73322 0.86303 3.14336C0.86303 2.30754 1.07147 1.51711 1.43839 0.835744C3.52796 3.61574 6.65199 5.44184 10.1739 5.63262C10.1016 5.29648 10.0645 4.94225 10.0645 4.58794C10.0645 2.05324 11.962 0 14.3031 0C15.5219 0 16.6226 0.554261 17.3952 1.44459C18.3625 1.24472 19.2686 0.863176 20.0886 0.336249C19.7708 1.40827 19.0998 2.3075 18.223 2.87076C19.0808 2.76174 19.8991 2.51664 20.6579 2.15324C20.0886 3.07082 19.372 3.87925 18.5442 4.52428Z" fill="#FF6500"/>
</svg>
