<svg width="120" height="29" viewBox="0 0 120 29" fill="none" xmlns="http://www.w3.org/2000/svg">
<g clip-path="url(#clip0_105_417)">
<path d="M35.1992 20.4794H43.7364V17.933H38.2335V8.3418H35.1992V20.4794Z" fill="#3C2B1F"/>
<path d="M48.7933 18.7804C47.5761 18.7804 46.9418 17.7279 46.9418 16.1492C46.9418 14.5705 47.5761 13.501 48.7933 13.501C50.0104 13.501 50.6618 14.5705 50.6618 16.1492C50.6618 17.7279 50.0104 18.7804 48.7933 18.7804ZM48.8104 20.7496C51.639 20.7496 53.4904 18.7635 53.4904 16.1492C53.4904 13.535 51.639 11.5488 48.8104 11.5488C45.999 11.5488 44.1133 13.535 44.1133 16.1492C44.1133 18.7635 45.999 20.7496 48.8104 20.7496Z" fill="#3C2B1F"/>
<path d="M58.3864 23.484C59.6893 23.484 60.8378 23.1954 61.6093 22.5164C62.3121 21.8883 62.775 20.9377 62.775 19.6306V11.7878H60.1007V12.7215H60.0664C59.5521 11.9915 58.7635 11.5332 57.5978 11.5332C55.4207 11.5332 53.9121 13.3326 53.9121 15.879C53.9121 18.5441 55.7464 20.004 57.7178 20.004C58.7807 20.004 59.4493 19.5796 59.9635 19.0025H60.0321V19.8682C60.0321 20.9207 59.535 21.5318 58.3521 21.5318C57.4264 21.5318 56.9635 21.1414 56.8093 20.6831H54.1007C54.375 22.4994 55.9693 23.484 58.3864 23.484ZM58.3693 17.95C57.3235 17.95 56.6378 17.1012 56.6378 15.7941C56.6378 14.47 57.3235 13.6212 58.3693 13.6212C59.535 13.6212 60.1521 14.6058 60.1521 15.7771C60.1521 16.9993 59.5864 17.95 58.3693 17.95Z" fill="#3C2B1F"/>
<path d="M68.2738 18.7804C67.0566 18.7804 66.4223 17.7279 66.4223 16.1492C66.4223 14.5705 67.0566 13.501 68.2738 13.501C69.4909 13.501 70.1423 14.5705 70.1423 16.1492C70.1423 17.7279 69.4909 18.7804 68.2738 18.7804ZM68.2909 20.7496C71.1195 20.7496 72.9705 18.7635 72.9705 16.1492C72.9705 13.535 71.1195 11.5488 68.2909 11.5488C65.4795 11.5488 63.5938 13.535 63.5938 16.1492C63.5938 18.7635 65.4795 20.7496 68.2909 20.7496Z" fill="#3C2B1F"/>
<path d="M73.7871 20.4794H76.5814V11.7878H73.7871V20.4794ZM73.7871 10.5826H76.5814V8.3418H73.7871V10.5826Z" fill="#3C2B1F"/>
<path d="M77.793 23.3482H80.5873V19.5796H80.6215C81.1701 20.3096 81.9758 20.751 83.1073 20.751C85.4044 20.751 86.9301 18.9515 86.9301 16.1336C86.9301 13.5193 85.5073 11.5332 83.1758 11.5332C81.9758 11.5332 81.1187 12.0594 80.5187 12.8403H80.4673V11.7878H77.793V23.3482ZM82.3873 18.612C81.1873 18.612 80.5015 17.6444 80.5015 16.2354C80.5015 14.8265 81.1187 13.757 82.3358 13.757C83.5358 13.757 84.1015 14.7416 84.1015 16.2354C84.1015 17.7123 83.4501 18.612 82.3873 18.612Z" fill="#3C2B1F"/>
<path d="M91.4795 20.751C93.7767 20.751 95.4738 19.7664 95.4738 17.8651C95.4738 15.6413 93.6567 15.2509 92.1138 14.9962C90.9995 14.7925 90.0052 14.7076 90.0052 14.0965C90.0052 13.5533 90.5366 13.2987 91.2224 13.2987C91.9938 13.2987 92.5252 13.5363 92.6281 14.3172H95.1995C95.0624 12.6027 93.7252 11.5332 91.2395 11.5332C89.1652 11.5332 87.4509 12.4838 87.4509 14.3172C87.4509 16.3543 89.0795 16.7617 90.6052 17.0163C91.7709 17.22 92.8338 17.3049 92.8338 18.0858C92.8338 18.646 92.3024 18.9515 91.4624 18.9515C90.5367 18.9515 89.9538 18.5272 89.8509 17.6614H87.2109C87.2967 19.5796 88.9081 20.751 91.4795 20.751Z" fill="#3C2B1F"/>
<path d="M99.2693 20.7333C100.486 20.7333 101.258 20.2579 101.892 19.4092H101.944V20.4786H104.618V11.7871H101.824V16.6421C101.824 17.6776 101.241 18.3906 100.281 18.3906C99.3893 18.3906 98.9607 17.8644 98.9607 16.9137V11.7871H96.1836V17.4909C96.1836 19.4261 97.2464 20.7333 99.2693 20.7333Z" fill="#3C2B1F"/>
<path d="M105.834 20.4794H108.628V15.6073C108.628 14.5718 109.143 13.8419 110.017 13.8419C110.857 13.8419 111.251 14.3851 111.251 15.3188V20.4794H114.045V15.6073C114.045 14.5718 114.543 13.8419 115.434 13.8419C116.274 13.8419 116.668 14.3851 116.668 15.3188V20.4794H119.463V14.8265C119.463 12.8743 118.468 11.5332 116.48 11.5332C115.348 11.5332 114.405 12.0085 113.72 13.061H113.685C113.24 12.1273 112.365 11.5332 111.217 11.5332C109.948 11.5332 109.108 12.1274 108.56 13.0271H108.508V11.7878H105.834V20.4794Z" fill="#3C2B1F"/>
<path d="M18.1498 1.39788L15.3405 0.652466L12.9731 9.40167L10.8357 1.50283L8.02636 2.24824L10.3356 10.7824L4.58376 5.08662L2.5272 7.12312L8.83629 13.3707L0.979318 11.286L0.226562 14.0678L8.81129 16.3457C8.713 15.9259 8.661 15.4885 8.661 15.0391C8.661 11.8578 11.2653 9.27895 14.4779 9.27895C17.6904 9.27895 20.2947 11.8578 20.2947 15.0391C20.2947 15.4856 20.2434 15.9203 20.1463 16.3376L27.9482 18.4077L28.7009 15.6259L20.0821 13.339L27.9396 11.2541L27.1868 8.47219L18.5683 10.7589L24.3201 5.06324L22.2636 3.02674L16.042 9.18764L18.1498 1.39788Z" fill="black"/>
<path d="M20.1385 16.3711C19.8976 17.3794 19.3891 18.2853 18.6914 19.0111L24.3436 24.6082L26.4001 22.5716L20.1385 16.3711Z" fill="black"/>
<path d="M18.6344 19.0684C17.9282 19.7825 17.0359 20.3155 16.0352 20.5902L18.0919 28.191L20.9012 27.4455L18.6344 19.0684Z" fill="black"/>
<path d="M15.9297 20.618C15.4654 20.7362 14.9788 20.799 14.4773 20.799C13.94 20.799 13.4197 20.7268 12.9258 20.5918L10.8672 28.1996L13.6765 28.9449L15.9297 20.618Z" fill="black"/>
<path d="M12.8271 20.5638C11.8417 20.2755 10.9652 19.7358 10.2735 19.0195L4.60742 24.6303L6.66399 26.6668L12.8271 20.5638Z" fill="black"/>
<path d="M10.2265 18.9686C9.54661 18.2479 9.0514 17.3541 8.81568 16.3613L0.988281 18.4382L1.74103 21.2201L10.2265 18.9686Z" fill="black"/>
</g>
<defs>
<clipPath id="clip0_105_417">
<rect width="120" height="29" fill="white"/>
</clipPath>
</defs>
</svg>
