<svg width="120" height="23" viewBox="0 0 120 23" fill="none" xmlns="http://www.w3.org/2000/svg">
<g clip-path="url(#clip0_105_434)">
<path d="M115.637 5.74023L115.703 5.76233C116.563 5.78437 117.314 6.38005 117.534 7.19627L117.557 7.28453L119.784 16.3294H116.828L115.505 10.9466L114.468 14.2337C114.159 15.1382 113.321 15.778 112.35 15.778C111.424 15.778 110.585 15.1823 110.276 14.3219L110.232 14.2337L109.195 10.9466L107.872 16.3294H104.938L107.143 7.28453L107.166 7.19627C107.409 6.33592 108.18 5.74023 109.085 5.74023L109.152 5.76233C109.967 5.78437 110.673 6.31382 110.96 7.06394L110.982 7.1301L112.35 11.4319L113.718 7.1301L113.74 7.06394C114.027 6.26969 114.777 5.74023 115.637 5.74023Z" fill="#394149"/>
<path d="M99.5172 16.3294C96.5828 16.3294 94.2227 13.9689 94.2227 11.0349V5.74023H97.0684V11.0349C97.0684 12.3806 98.1714 13.4836 99.5172 13.4836C100.841 13.4836 101.944 12.3806 101.944 11.0349V5.74023H104.812V11.0349C104.812 13.9689 102.429 16.3294 99.5172 16.3294Z" fill="#394149"/>
<path d="M93.7038 5.74023V8.60818C92.4684 8.60818 91.3873 9.4244 91.0346 10.6157L90.5271 12.2923C89.8211 14.6969 87.6152 16.3294 85.1221 16.3294V13.4836C86.3355 13.4836 87.4385 12.6674 87.7912 11.4761L88.2768 9.79943C88.9828 7.39483 91.1888 5.74023 93.7038 5.74023Z" fill="#394149"/>
<path d="M82.2642 10.3289C82.7274 10.3289 83.1244 9.95386 83.1244 9.46853C83.1244 9.00524 82.7274 8.60818 82.2642 8.60818H79.1095V10.3289H82.2642ZM82.2642 5.74023C84.316 5.74023 85.9926 7.41687 85.9926 9.46853C85.9926 11.5202 84.316 13.1968 82.2642 13.1968H79.1095V16.3294H76.2637V8.32136C76.2637 6.90951 77.411 5.74023 78.8229 5.74023H82.2642Z" fill="#394149"/>
<path d="M72.0234 5.74023H74.8692V16.3294H72.0234V5.74023Z" fill="#394149"/>
<path d="M65.606 8.47531H65.0324C63.5986 8.47531 62.4513 9.62249 62.4513 11.0344C62.4513 12.4683 63.5986 13.6155 65.0324 13.6155H65.606C67.0399 13.6155 68.1872 12.4683 68.1872 11.0344C68.1872 9.62249 67.0399 8.47531 65.606 8.47531ZM65.0324 5.60742H65.606C68.606 5.60742 71.0329 8.03411 71.0329 11.0344C71.0329 14.0567 68.606 16.4834 65.606 16.4834H65.0324C62.0324 16.4834 59.6055 14.0567 59.6055 11.0344C59.6055 8.03411 62.0324 5.60742 65.0324 5.60742Z" fill="#394149"/>
<path d="M58.3967 8.60818H52.8375C51.4918 8.60818 50.3888 9.71123 50.3888 11.0349C50.3888 12.3806 51.4918 13.4836 52.8375 13.4836H55.5951C55.882 13.4395 56.1246 13.1968 56.1246 12.888V12.6232H51.8228V9.75536H56.6102C57.9336 9.75536 58.9704 10.8143 58.9704 12.1158V12.888C58.9704 14.7632 57.4923 16.2853 55.6172 16.3294H52.8375C49.9034 16.3294 47.543 13.9689 47.543 11.0349C47.543 8.12285 49.9034 5.74023 52.8375 5.74023H58.3967V8.60818Z" fill="#394149"/>
<path d="M41.6109 8.47531H41.0373C39.6033 8.47531 38.4562 9.62249 38.4562 11.0344C38.4562 12.4683 39.6033 13.6155 41.0373 13.6155H41.6109C43.0449 13.6155 44.192 12.4683 44.192 11.0344C44.192 9.62249 43.0449 8.47531 41.6109 8.47531ZM41.0373 5.60742H41.6109C44.6111 5.60742 47.0378 8.03411 47.0378 11.0344C47.0378 14.0567 44.6111 16.4834 41.6109 16.4834H41.0373C38.037 16.4834 35.6104 14.0567 35.6104 11.0344C35.6104 8.03411 38.037 5.60742 41.0373 5.60742Z" fill="#394149"/>
<path d="M26.3555 12.0497V5.74023H29.2013V12.0497C29.2013 12.8438 29.8411 13.4836 30.6353 13.4836H34.9372V16.3294H30.6353C28.2747 16.3294 26.3555 14.4102 26.3555 12.0497Z" fill="#394149"/>
<path d="M4.26859 1.40813C6.19127 0.34146 8.38536 -0.136526 10.5776 0.0336437C12.7696 0.203821 14.8635 1.01479 16.5985 2.36535C18.3335 3.71596 19.6331 5.54721 20.3358 7.63054C21.0386 9.71389 21.1139 11.958 20.5516 14.0836L20.4388 14.4795C19.8404 16.4464 18.7119 18.2141 17.1735 19.5859L16.8608 19.8542C15.2771 21.1652 13.361 22.0173 11.3212 22.3135L10.9127 22.3655C9.53187 22.5145 8.14021 22.4039 6.80725 22.0468L8.72226 20.1318C9.47574 20.2152 10.2406 20.2041 10.9987 20.0941C12.7394 19.8413 14.3678 19.0825 15.6807 17.9119C16.9935 16.7412 17.9332 15.2101 18.3831 13.5096C18.8048 11.9155 18.7785 10.2379 18.3103 8.66114L18.2106 8.3474C17.6484 6.68075 16.6087 5.21568 15.2207 4.13521C13.9195 3.12236 12.3659 2.48925 10.732 2.30182L10.4039 2.27006C8.65021 2.13393 6.89484 2.51632 5.35668 3.36966C4.33218 3.93806 3.43522 4.69983 2.70955 5.60553H0C1.01519 3.84833 2.4887 2.39561 4.26859 1.40813Z" fill="#394149"/>
<path d="M6.00842 4.28968C7.30066 3.59903 8.76074 3.28428 10.2228 3.38011C11.6849 3.47598 13.0912 3.97892 14.2822 4.83236C15.473 5.68577 16.4015 6.85544 16.9622 8.20891C17.5229 9.5625 17.6931 11.0467 17.4545 12.4922C17.2157 13.9377 16.5772 15.288 15.6112 16.3895C14.6452 17.4911 13.3898 18.3004 11.9877 18.7256L11.7238 18.8012C11.0905 18.9694 10.4411 19.0552 9.79077 19.0619L13.5648 15.2884C13.6909 15.1691 13.8123 15.0444 13.9274 14.9132C14.6178 14.126 15.0743 13.1607 15.2449 12.1275C15.4155 11.0944 15.2935 10.0339 14.8928 9.06646C14.4921 8.09901 13.8284 7.2631 12.9773 6.65317L12.8163 6.54142C12.0007 5.99906 11.0557 5.67916 10.0761 5.61489L9.88055 5.60503C9.79313 5.60236 9.70549 5.60252 9.61823 5.60394H4.21777C4.74701 5.08585 5.34903 4.64217 6.00842 4.28968Z" fill="#394149"/>
<path d="M4.77179 17.7498C4.52882 17.993 4.56242 18.3965 4.84227 18.5962C5.06349 18.754 5.36639 18.7287 5.55862 18.5366L11.2906 12.8046C12.1688 11.9264 12.1688 10.5023 11.2906 9.62408C10.8688 9.20239 10.2966 8.96542 9.70029 8.96542H3.4343C3.18394 8.96542 2.96324 9.13062 2.89259 9.37079C2.78647 9.73208 3.05735 10.0939 3.43392 10.0942L9.37735 10.0991C10.5009 10.0997 11.0634 11.4582 10.2687 12.2529L4.77179 17.7498ZM7.14463 20.1226C6.17734 21.0897 4.65272 21.2165 3.53929 20.4219C2.13092 19.4169 1.96245 17.3872 3.18576 16.1637L7.00915 12.3403L3.43275 12.3373C1.55927 12.3361 0.2122 10.5351 0.740836 8.7377C1.09224 7.54297 2.18894 6.72266 3.4343 6.72266H9.70029C10.8915 6.72266 12.0342 7.1957 12.8766 8.038C14.6308 9.79224 14.6308 12.6365 12.8766 14.3907L7.14463 20.1226Z" fill="#394149"/>
</g>
<defs>
<clipPath id="clip0_105_434">
<rect width="120" height="22.4299" fill="white"/>
</clipPath>
</defs>
</svg>
