<svg width="20" height="20" viewBox="0 0 20 20" fill="none" xmlns="http://www.w3.org/2000/svg">
<path d="M12.375 19.5H7.125C6.915 19.5 6.75 19.335 6.75 19.125V0.75C6.75 0.3375 7.0875 0 7.5 0H12C12.4125 0 12.75 0.3375 12.75 0.75V19.125C12.75 19.335 12.585 19.5 12.375 19.5ZM4.875 19.5H2.25C1.005 19.5 0 18.495 0 17.25V9.75C0 9.3375 0.3375 9 0.75 9H4.5C4.9125 9 5.25 9.3375 5.25 9.75V19.125C5.25 19.335 5.085 19.5 4.875 19.5ZM17.25 19.5H14.625C14.415 19.5 14.25 19.335 14.25 19.125V6C14.25 5.5875 14.5875 5.25 15 5.25H18.75C19.1625 5.25 19.5 5.5875 19.5 6V17.25C19.5 18.495 18.495 19.5 17.25 19.5Z" fill="#FF6500"/>
</svg>
