<svg width="23" height="23" viewBox="0 0 23 23" fill="none" xmlns="http://www.w3.org/2000/svg">
<path d="M21.0576 0C21.946 0 22.6667 0.720059 22.667 1.6084V21.0576C22.667 21.9462 21.9462 22.667 21.0576 22.667H1.60938C0.720812 22.667 0 21.9462 0 21.0576V1.6084C0.000262933 0.720222 0.720222 0.000263707 1.6084 0H21.0576ZM3.37305 8.49316V19.2939H6.80176V8.49316H3.37305ZM15.4043 8.21777C12.9982 8.21777 12.1133 9.98633 12.1133 9.98633V8.49316H8.85449V19.2939H12.2832V13.5693C12.2832 12.5956 12.5579 11.2109 14.1631 11.2109C14.9365 11.211 15.9512 11.4204 15.9512 13.3213V19.2939H19.3281V12.498C19.3281 9.27535 17.5505 8.21791 15.4043 8.21777ZM5.08789 3.10742C4.00192 3.10742 3.12109 3.98825 3.12109 5.07422C3.12135 6.15998 4.00207 7.04004 5.08789 7.04004C6.17349 7.03979 7.05346 6.15982 7.05371 5.07422C7.05371 3.9884 6.17365 3.10768 5.08789 3.10742Z" fill="white"/>
</svg>
