<svg width="120" height="34" viewBox="0 0 120 34" fill="none" xmlns="http://www.w3.org/2000/svg">
<path d="M40.081 21.635V8.41211H37.8945V21.635H40.081Z" fill="#43505C"/>
<path d="M41.4199 17.2283C41.4199 19.9298 43.248 21.8492 46.0259 21.8492C48.8038 21.8492 50.6319 19.9298 50.6319 17.2283C50.6319 14.5269 48.8038 12.6074 46.0259 12.6074C43.248 12.6074 41.4199 14.5269 41.4199 17.2283ZM43.6243 17.2283C43.6243 15.6466 44.5742 14.5446 46.0259 14.5446C47.4776 14.5446 48.4275 15.6466 48.4275 17.2283C48.4275 18.7923 47.4776 19.912 46.0259 19.912C44.5742 19.912 43.6243 18.7923 43.6243 17.2283Z" fill="#43505C"/>
<path d="M51.3672 17.049C51.3672 19.6083 53.0339 21.4567 55.5251 21.4567C56.8155 21.4567 57.9267 20.9413 58.4822 20.0882V21.5811C58.4822 23.0207 57.5682 23.9804 56.0448 23.9804C54.6828 23.9804 53.7508 23.3228 53.6254 22.1676H51.421C51.7077 24.4603 53.482 25.9532 55.9194 25.9532C58.7869 25.9532 60.615 24.087 60.615 21.1901V12.8547H58.6794L58.5539 14.0454C58.0163 13.1213 56.9051 12.5703 55.5968 12.5703C53.0698 12.5703 51.3672 14.472 51.3672 17.049ZM53.5895 16.9957C53.5895 15.5384 54.5215 14.472 55.9015 14.472C57.4069 14.472 58.4106 15.5561 58.4106 16.9957C58.4106 18.4531 57.4069 19.5728 55.9015 19.5728C54.5394 19.5728 53.5895 18.4709 53.5895 16.9957Z" fill="#43505C"/>
<path d="M61.6973 17.2283C61.6973 19.9298 63.5253 21.8492 66.3032 21.8492C69.0812 21.8492 70.9092 19.9298 70.9092 17.2283C70.9092 14.5269 69.0812 12.6074 66.3032 12.6074C63.5253 12.6074 61.6973 14.5269 61.6973 17.2283ZM63.9017 17.2283C63.9017 15.6466 64.8515 14.5446 66.3032 14.5446C67.7549 14.5446 68.7048 15.6466 68.7048 17.2283C68.7048 18.7923 67.7549 19.912 66.3032 19.912C64.8515 19.912 63.9017 18.7923 63.9017 17.2283Z" fill="#43505C"/>
<path d="M73.2748 11.0614C73.9916 11.0614 74.5831 10.4927 74.5831 9.76401C74.5831 9.0531 73.9916 8.48438 73.2748 8.48438C72.54 8.48438 71.9844 9.0531 71.9844 9.76401C71.9844 10.4927 72.54 11.0614 73.2748 11.0614ZM72.1815 21.6362H74.368V12.8565H72.1815V21.6362Z" fill="#43505C"/>
<path d="M76.2852 25.7061H78.418V20.4276C78.9736 21.334 80.1744 21.8672 81.5006 21.8672C84.1173 21.8672 85.6765 19.8767 85.6406 17.1397C85.5869 14.3849 83.9918 12.5898 81.4827 12.5898C80.1386 12.5898 78.9199 13.1763 78.3822 14.1894L78.2567 12.8564H76.2852V25.7061ZM78.5076 17.2463C78.5076 15.6645 79.4754 14.5626 80.9988 14.5626C82.5222 14.5626 83.4362 15.6823 83.4362 17.2463C83.4362 18.8103 82.5222 19.9122 80.9988 19.9122C79.4754 19.9122 78.5076 18.8281 78.5076 17.2463Z" fill="#43505C"/>
<path d="M86.1953 19.0057C86.267 20.7474 87.6291 21.8671 89.7439 21.8671C91.8228 21.8671 93.2387 20.7652 93.2387 19.059C93.2387 17.7971 92.4501 16.944 90.9984 16.5886L89.4392 16.2154C88.7761 16.0376 88.328 15.8066 88.328 15.2379C88.328 14.6336 88.8119 14.207 89.6005 14.207C90.4249 14.207 90.9626 14.6691 90.9626 15.4334H92.9519C92.8803 13.6916 91.5719 12.5897 89.6543 12.5897C87.7545 12.5897 86.3387 13.6916 86.3387 15.3623C86.3387 16.4997 87.0018 17.4417 88.7044 17.886L90.2457 18.277C90.8192 18.4369 91.1777 18.7035 91.1777 19.2012C91.1777 19.8943 90.5145 20.2142 89.708 20.2142C88.7403 20.2142 88.1847 19.7699 88.1847 19.0057H86.1953Z" fill="#43505C"/>
<path d="M97.7751 21.8662C98.9759 21.8662 100.123 21.3153 100.643 20.4977L100.786 21.6352H102.829V12.8555H100.643V17.4586C100.643 19.0404 100.033 19.929 98.5996 19.929C97.4884 19.929 96.7177 19.3958 96.7177 17.583V12.8555H94.5312V18.3472C94.5312 20.4444 95.6783 21.8662 97.7751 21.8662Z" fill="#43505C"/>
<path d="M106.944 21.636V16.5886C106.944 15.1668 107.787 14.4914 108.826 14.4914C109.866 14.4914 110.547 15.149 110.547 16.3931V21.636H112.679V16.6064C112.679 15.1668 113.504 14.4914 114.543 14.4914C115.601 14.4914 116.282 15.149 116.282 16.3931V21.636H118.397V15.8954C118.397 13.8694 117.267 12.5897 115.117 12.5897C113.773 12.5897 112.715 13.2295 112.285 14.2604C111.801 13.2295 110.833 12.5897 109.364 12.5897C108.324 12.5897 107.392 13.0696 106.873 13.8516L106.765 12.8563H104.758V21.636H106.944Z" fill="#43505C"/>
<path d="M101.703 29.4817C102.029 29.4817 102.312 29.2097 102.312 28.8867C102.312 28.5552 102.029 28.2832 101.703 28.2832C101.369 28.2832 101.086 28.5552 101.086 28.8867C101.086 29.2097 101.369 29.4817 101.703 29.4817Z" fill="#8E98A1"/>
<path d="M102.939 27.2894C102.939 28.5899 103.745 29.4654 104.919 29.4654C105.931 29.4654 106.702 28.8619 106.865 27.9609H106.094C105.948 28.4624 105.502 28.7599 104.971 28.7599C104.217 28.7599 103.737 28.1819 103.737 27.2809C103.737 26.3629 104.242 25.8019 104.988 25.8019C105.502 25.8019 105.948 26.0739 106.085 26.6094H106.857C106.719 25.6999 105.999 25.0879 104.997 25.0879C103.779 25.0879 102.939 25.9804 102.939 27.2894Z" fill="#8E98A1"/>
<path d="M107.17 27.2802C107.17 28.5297 108.027 29.4647 109.313 29.4647C110.598 29.4647 111.456 28.5297 111.456 27.2802C111.456 26.0307 110.598 25.0957 109.313 25.0957C108.027 25.0957 107.17 26.0307 107.17 27.2802ZM107.984 27.2802C107.984 26.4302 108.507 25.8097 109.313 25.8097C110.118 25.8097 110.641 26.4302 110.641 27.2802C110.641 28.1302 110.118 28.7507 109.313 28.7507C108.507 28.7507 107.984 28.1302 107.984 27.2802Z" fill="#8E98A1"/>
<path d="M112.948 29.3712V26.8722C112.948 26.2177 113.36 25.7927 113.96 25.7927C114.534 25.7927 114.894 26.1582 114.894 26.8127V29.3712H115.683V26.8807C115.683 26.2177 116.085 25.7927 116.694 25.7927C117.26 25.7927 117.62 26.1582 117.62 26.8127V29.3712H118.4V26.6427C118.4 25.6822 117.834 25.0957 116.874 25.0957C116.223 25.0957 115.717 25.4102 115.511 25.9202C115.297 25.4102 114.825 25.0957 114.14 25.0957C113.617 25.0957 113.154 25.3337 112.923 25.7417L112.863 25.2147H112.143V29.3712H112.948Z" fill="#8E98A1"/>
<path fill-rule="evenodd" clip-rule="evenodd" d="M1.55859 17.3358L1.5601 17.181L1.5632 17.0261L1.56791 16.8711L1.57421 16.7162L1.58213 16.5613L1.59164 16.4063L1.60277 16.2515L1.61549 16.0966L1.62983 15.9418L1.64577 15.7871L1.66332 15.6325L1.68247 15.478L1.70322 15.3236L1.72559 15.1693L1.74955 15.0153L1.77512 14.8614L1.80229 14.7076L1.83105 14.5542L1.86141 14.4009L1.89338 14.2478L1.92694 14.0949L1.96208 13.9424L1.99883 13.7902L2.03715 13.6382L2.07707 13.4866L2.11857 13.3352L2.16165 13.1842L2.20631 13.0336L2.25254 12.8834L2.30033 12.7336L2.34971 12.5841L2.40064 12.435L2.45314 12.2864L2.50719 12.1383L2.56279 11.9906L2.61994 11.8434L2.67864 11.6968L2.73887 11.5506L2.80064 11.405L2.86394 11.2599L2.92876 11.1153L2.9951 10.9713L3.06296 10.828L3.13232 10.6852L3.20319 10.543L3.27556 10.4015L3.34941 10.2607L3.42476 10.1204L3.50157 9.98094L3.57986 9.84208L3.65962 9.70392L3.74083 9.56653L3.8235 9.42983L3.90761 9.29391L3.99316 9.15876L4.08014 9.02438L4.16854 8.89085L4.25836 8.75802L4.34958 8.62612L4.44221 8.49499L4.53622 8.3647L4.63161 8.23535L4.72839 8.10677L4.82652 7.97919L4.92602 7.85246L5.02686 7.72662L5.12904 7.60174L5.23255 7.47781L5.33738 7.35484L5.44352 7.23284L5.55097 7.11182L5.6597 6.99181L5.76972 6.8728L5.88102 6.75482L5.99357 6.63788L6.10737 6.52198L6.22242 6.40715L6.33869 6.29339L6.45619 6.18071L6.5749 6.06914L6.6948 5.95869L6.8159 5.84935L6.93816 5.74115L7.0616 5.63409L7.18619 5.52819L7.31192 5.42347L7.43877 5.31993L7.56675 5.21759L7.69584 5.11644L7.82602 5.01652L7.95724 4.91782L8.08963 4.82036L8.22304 4.72415L8.35745 4.62921L8.49288 4.53553L8.6294 4.44314L8.76685 4.35202L8.90532 4.26223L9.0448 4.17373L9.18529 4.08657L9.32665 4.00073L9.46901 3.91624L9.61223 3.8331L9.75639 3.75132L9.90148 3.67091L10.0474 3.59188L10.1942 3.51424L10.3419 3.438L10.4904 3.36316L10.6398 3.28975L10.7899 3.21775L10.941 3.14719L11.0927 3.07807L11.2452 3.0104L11.3985 2.94418L11.5526 2.87944L11.7073 2.81617L11.8628 2.75437L12.0189 2.69406L12.1758 2.63526L12.3333 2.57794L12.4915 2.52215L12.6503 2.46787L12.8097 2.41511L12.9697 2.36388L13.1303 2.31419L13.2915 2.26604L13.4532 2.21944L13.6155 2.1744L13.7783 2.13091L13.9417 2.08899L14.1055 2.04865L14.2697 2.00989L14.4345 1.9727L14.5997 1.9371L14.7653 1.9031L14.9313 1.87069L15.0978 1.83989L15.2646 1.81069L15.4318 1.7831L15.5994 1.75713L15.7672 1.73277L15.9354 1.71005L16.1038 1.68894L16.2726 1.66947L16.4416 1.65162L16.6109 1.63542L16.7804 1.62086L16.9501 1.60793L17.1199 1.59666L18.0335 1.54492L18.0856 5.9098L18.1155 5.90946L18.2416 5.90929L18.3678 5.91034L18.4939 5.91262L18.6203 5.91613L18.7465 5.92088L18.8728 5.92684L18.9991 5.93405L19.1254 5.9425L19.2517 5.95216L19.378 5.96308L19.5041 5.97522L19.6303 5.98861L19.7563 6.00322L19.8823 6.01907L20.0081 6.03615L20.1339 6.05447L20.2595 6.07402L20.385 6.09481L20.5103 6.11683L20.6356 6.14008L20.7605 6.16456L20.8853 6.19027L21.01 6.21721L21.1343 6.24538L21.2585 6.27476L21.3824 6.30538L21.5061 6.33722L21.6295 6.37028L21.7526 6.40456L21.8755 6.44005L21.9979 6.47675L22.1201 6.51467L22.242 6.5538L22.3636 6.59414L22.4847 6.63567L22.6055 6.67841L22.726 6.72234L22.846 6.76748L22.9656 6.81379L23.0848 6.86131L23.2036 6.91001L23.3218 6.95988L23.4397 7.01093L23.5572 7.06316L23.674 7.11656L23.7905 7.17111L23.9064 7.22683L24.0218 7.28371L24.1367 7.34174L24.251 7.40092L24.3647 7.46124L24.478 7.5227L24.5906 7.58529L24.7026 7.64901L24.814 7.71385L24.9249 7.77983L25.035 7.8469L25.1446 7.91505L25.2535 7.98437L25.3617 8.05469L25.4692 8.12616L25.5761 8.19872L25.6823 8.27229L25.7878 8.34701L25.8925 8.42274L25.9964 8.49955L26.0998 8.57744L26.2022 8.65633L26.304 8.73631L26.4049 8.81721L26.5051 8.8992L26.6045 8.98227L26.703 9.06626L26.8008 9.15126L26.8978 9.23727L26.9938 9.32428L27.089 9.41229L27.1833 9.50123L27.2769 9.5911L27.3694 9.68197L27.4611 9.77377L27.5519 9.86658L27.6418 9.96023L27.7307 10.0548L27.8188 10.1503L27.9058 10.2468L27.9919 10.344L28.0771 10.4423L28.1613 10.5413L28.2445 10.6412L28.3267 10.7421L28.4079 10.8437L28.4881 10.9462L28.5672 11.0495L28.6454 11.1536L28.7225 11.2586L28.7985 11.3644L28.8735 11.4709L28.9474 11.5782L29.0203 11.6863L29.092 11.7951L29.1627 11.9048L29.2322 12.0151L29.3007 12.1262L29.368 12.238L29.4343 12.3505L29.4993 12.4637L29.5633 12.5776L29.6261 12.6922L29.6878 12.8074L29.7482 12.9233L29.8075 13.0399L29.8657 13.157L29.9226 13.2748L29.9784 13.3932L30.033 13.5122L30.0863 13.6318L30.1385 13.752L30.1893 13.8728L30.2391 13.994L30.2875 14.1159L30.3347 14.2382L30.3807 14.3611L30.4254 14.4845L30.4689 14.6084L30.5112 14.7327L30.5522 14.8576L30.5918 14.9829L30.6302 15.1086L30.6673 15.2348L30.7032 15.3614L30.7377 15.4884L30.771 15.6158L30.8028 15.7436L30.8335 15.8717L30.8628 16.0003L30.8908 16.1291L30.9175 16.2583L30.9429 16.3879L30.9669 16.5177L30.9896 16.6478L31.011 16.7782L31.031 16.9088L31.0497 17.0398L31.067 17.1709L31.083 17.3024L31.0976 17.434L31.1109 17.5658L31.1228 17.6978L31.1334 17.83L31.1426 17.9624L31.1504 18.0949L31.1568 18.2275L31.162 18.3603L31.1656 18.4932L31.168 18.6261L31.169 18.7592L31.1686 18.8923L31.1668 19.0256L31.1636 19.1589L31.1591 19.2921L31.1532 19.4254L31.1459 19.5587L31.1372 19.692L31.1271 19.8253L31.1157 19.9585L31.1028 20.0917L31.0886 20.2248L31.073 20.3578L31.056 20.4908L31.0377 20.6236L31.0179 20.7564L30.9968 20.889L30.9743 21.0214L30.9503 21.1537L30.9251 21.2859L30.8984 21.4178L30.8704 21.5496L30.8409 21.6811L30.8102 21.8125L30.778 21.9435L30.7445 22.0744L30.7096 22.2049L30.6733 22.3351L30.6357 22.4651L30.5967 22.5948L30.5564 22.7242L30.5146 22.8532L30.4716 22.9819L30.4272 23.1102L30.3813 23.2382L30.3343 23.3657L30.2858 23.4929L30.236 23.6196L30.1849 23.7459L30.1325 23.8718L30.0787 23.9972L30.0236 24.1222L29.9672 24.2466L29.9094 24.3707L29.8504 24.4942L29.7901 24.6171L29.7284 24.7396L29.6655 24.8614L29.6012 24.9828L29.5357 25.1035L29.4689 25.2238L29.4009 25.3433L29.3315 25.4623L29.2609 25.5807L29.1891 25.6984L29.116 25.8155L29.0416 25.9319L28.966 26.0476L28.8892 26.1627L28.8111 26.2771L28.7319 26.3907L28.6514 26.5037L28.5697 26.6159L28.4868 26.7274L28.4028 26.8381L28.3175 26.9481L28.2311 27.0572L28.1435 27.1656L28.0547 27.2732L27.9648 27.3799L27.8737 27.4858L27.7816 27.5909L27.6882 27.6952L27.5938 27.7986L27.4982 27.9011L27.4016 28.0027L27.3038 28.1035L27.205 28.2032L27.105 28.3021L27.004 28.4001L26.902 28.4972L26.799 28.5933L26.6949 28.6884L26.5897 28.7826L26.4834 28.8757L26.3763 28.9679L26.2681 29.0592L26.1589 29.1494L26.0487 29.2385L25.9376 29.3266L25.8255 29.4137L25.7124 29.4997L25.5984 29.5846L25.4835 29.6686L25.3677 29.7514L25.2509 29.8331L25.1332 29.9138L25.0147 29.9933L24.8953 30.0716L24.775 30.1489L24.6539 30.2251L24.532 30.3L24.4092 30.3739L24.2855 30.4465L24.1611 30.5181L24.0359 30.5884L23.9098 30.6575L23.7831 30.7255L23.6556 30.7922L23.5273 30.8577L23.3983 30.9221L23.2685 30.9851L23.1381 31.047L23.007 31.1076L22.8751 31.167L22.7426 31.2251L22.6095 31.2819L22.4757 31.3374L22.3413 31.3917L22.2062 31.4448L22.0706 31.4965L21.9343 31.5469L21.7975 31.596L21.66 31.6438L21.5221 31.6903L21.3836 31.7355L21.2445 31.7793L21.105 31.8218L20.9649 31.863L20.8244 31.9028L20.6834 31.9412L20.542 31.9784L20.4 32.0141L20.2577 32.0485L20.115 32.0816L19.9717 32.1132L19.8282 32.1435L19.6843 32.1724L19.54 32.1999L19.3953 32.226L19.2504 32.2506L19.1051 32.274L18.9595 32.2959L18.8136 32.3164L18.6675 32.3355L18.5211 32.3532L18.3743 32.3694L18.2275 32.3842L18.0803 32.3977L17.9331 32.4097L17.7856 32.4202L17.6379 32.4294L17.49 32.4371L17.342 32.4433L17.194 32.4481L17.0457 32.4515L16.8974 32.4535L16.749 32.454L16.6005 32.4531L16.452 32.4507L16.3034 32.4469L16.1548 32.4416L16.0062 32.4349L15.8576 32.4267L15.7091 32.4171L15.5605 32.406L15.412 32.3935L15.2636 32.3795L15.1152 32.3641L14.967 32.3473L14.8189 32.329L14.6709 32.3092L14.523 32.288L14.3753 32.2653L14.2278 32.2412L14.0804 32.2157L13.9332 32.1887L13.7864 32.1602L13.6396 32.1304L13.4932 32.099L13.347 32.0663L13.2011 32.0321L13.0554 31.9965L12.9101 31.9594L12.7651 31.9209L12.6205 31.881L12.4762 31.8397L12.3322 31.797L12.1886 31.7528L12.0455 31.7072L11.9027 31.6602L11.7604 31.6117L11.6185 31.5619L11.4771 31.5107L11.3361 31.4581L11.1956 31.4041L11.0557 31.3487L10.9162 31.2919L10.7772 31.2337L10.6389 31.1742L10.501 31.1133L10.3637 31.0511L10.227 30.9874L10.091 30.9224L9.95555 30.856L9.82067 30.7883L9.68649 30.7193L9.55301 30.6489L9.42007 30.5773L9.28792 30.5043L9.15646 30.4299L9.02571 30.3543L8.89566 30.2773L8.76639 30.1991L8.63781 30.1195L8.51002 30.0388L8.38309 29.9566L8.25685 29.8733L8.13148 29.7886L8.00696 29.7028L7.88322 29.6157L7.76034 29.5273L7.63833 29.4377L7.51719 29.3469L7.39695 29.2548L7.27761 29.1617L7.15917 29.0672L7.04167 28.9716L6.92511 28.8747L6.8095 28.7768L6.69485 28.6776L6.58119 28.5772L6.46851 28.4758L6.35684 28.3732L6.24618 28.2695L6.13655 28.1647L6.02795 28.0587L5.92041 27.9516L5.81393 27.8435L5.70852 27.7343L5.6042 27.624L5.50098 27.5127L5.39887 27.4002L5.29787 27.2868L5.19801 27.1723L5.09929 27.0568L5.00172 26.9404L4.90532 26.8228L4.8101 26.7044L4.71606 26.5849L4.62321 26.4645L4.53158 26.3431L4.44116 26.2208L4.35197 26.0976L4.26401 25.9734L4.17731 25.8484L4.09186 25.7224L4.00768 25.5955L3.92478 25.4679L3.84315 25.3393L3.76283 25.2098L3.68382 25.0796L3.60611 24.9485L3.52974 24.8167L3.4547 24.684L3.38099 24.5506L3.30864 24.4163L3.23764 24.2813L3.16801 24.1456L3.09975 24.0091L3.03289 23.872L2.96741 23.734L2.90333 23.5955L2.84065 23.4561L2.77939 23.3163L2.71955 23.1756L2.66115 23.0345L2.60418 22.8926L2.54865 22.7501L2.49458 22.6071L2.44196 22.4634L2.3908 22.3192L2.34111 22.1745L2.2929 22.0292L2.24618 21.8833L2.20094 21.737L2.1572 21.5902L2.11496 21.4428L2.07422 21.295L2.03499 21.1468L1.99729 20.9981L1.9611 20.849L1.92645 20.6994L1.89332 20.5495L1.86173 20.3992L1.83169 20.2485L1.80318 20.0975L1.77623 19.9461L1.75084 19.7944L1.72699 19.6424L1.70471 19.4901L1.684 19.3375L1.66486 19.1847L1.64729 19.0316L1.6313 18.8783L1.61688 18.7248L1.60405 18.571L1.59279 18.4171L1.58313 18.263L1.57506 18.1088L1.56858 17.9544L1.56368 17.7999L1.56039 17.6453L1.5587 17.4906L1.55859 17.3358ZM16.6584 6.00123L16.6229 3.02608L16.5891 3.02931L16.4342 3.04566L16.2797 3.06349L16.1253 3.08284L15.9715 3.10363L15.8178 3.12593L15.6643 3.14972L15.5112 3.17497L15.3584 3.20173L15.2063 3.22988L15.0539 3.25961L14.9027 3.29068L14.7512 3.32331L14.6005 3.35732L14.4499 3.39285L14.3001 3.42974L14.1506 3.46812L14.0016 3.50792L13.853 3.54916L13.7051 3.59178L13.5574 3.63588L13.4105 3.68134L13.264 3.72824L13.1183 3.77644L12.9729 3.82617L12.8282 3.87722L12.6842 3.92963L12.5405 3.98346L12.3977 4.03861L12.2557 4.09509L12.114 4.15302L11.973 4.21227L11.8328 4.27287L11.6933 4.33474L11.5545 4.39795L11.4165 4.46245L11.279 4.52836L11.1425 4.59548L11.0066 4.6639L10.8716 4.73362L10.7373 4.80463L10.604 4.87684L10.4712 4.9504L10.3393 5.02523L10.2086 5.10113L10.0782 5.17851L9.94909 5.25692L9.82083 5.33655L9.69319 5.41748L9.56657 5.4996L9.44088 5.58292L9.31636 5.66721L9.19231 5.753L9.0695 5.83971L8.94763 5.92761L8.82662 6.01673L8.7067 6.1069L8.58787 6.19815L8.46974 6.29068L8.35293 6.3841L8.23698 6.47874L8.12213 6.57441L8.00828 6.67119L7.89561 6.76891L7.78377 6.86785L7.67322 6.96768L7.5636 7.06866L7.45526 7.17049L7.34791 7.27343L7.24175 7.37729L7.13667 7.48218L7.03261 7.58815L6.92992 7.69485L6.82838 7.80247L6.72774 7.91135L6.6285 8.02092L6.53047 8.13126L6.43345 8.24277L6.33784 8.35497L6.24329 8.46817L6.15001 8.58215L6.05795 8.69705L5.9671 8.81273L5.87758 8.92918L5.78923 9.04648L5.7021 9.16471L5.61637 9.28348L5.53179 9.40325L5.44855 9.52364L5.3666 9.6448L5.28588 9.76674L5.20652 9.88937L5.12847 10.0126L5.05172 10.1366L4.97635 10.2613L4.90221 10.3867L4.82941 10.5128L4.75804 10.6394L4.68795 10.7666L4.6192 10.8946L4.55185 11.0231L4.48581 11.1522L4.4212 11.2818L4.35794 11.412L4.29607 11.5428L4.23554 11.6741L4.17646 11.8059L4.11871 11.9383L4.06237 12.0711L4.00747 12.2043L3.95395 12.3381L3.90183 12.4723L3.85114 12.6069L3.80185 12.742L3.75402 12.8774L3.70758 13.0133L3.66257 13.1495L3.619 13.2861L3.57688 13.423L3.53615 13.5604L3.49691 13.6979L3.45909 13.8358L3.42271 13.974L3.38778 14.1126L3.3543 14.2513L3.32227 14.3903L3.2917 14.5295L3.26258 14.669L3.23492 14.8086L3.2087 14.9485L3.18395 15.0885L3.16066 15.2288L3.13884 15.3691L3.11847 15.5096L3.09957 15.6502L3.08212 15.7909L3.06614 15.9317L3.05162 16.0727L3.03857 16.2136L3.02697 16.3545L3.01684 16.4956L3.00818 16.6367L3.00097 16.7778L2.99523 16.9189L2.99094 17.0599L2.98812 17.2009L2.98675 17.3419L2.98684 17.4828L2.98839 17.6236L2.99139 17.7644L2.99584 17.905L3.00173 18.0455L3.00909 18.1859L3.01788 18.3261L3.02812 18.4662L3.0398 18.606L3.05292 18.7458L3.06747 18.8853L3.08346 19.0246L3.10087 19.1636L3.11972 19.3024L3.13998 19.441L3.16168 19.5793L3.18477 19.7172L3.2093 19.8549L3.23522 19.9923L3.26255 20.1293L3.29128 20.2661L3.3214 20.4024L3.35292 20.5384L3.38583 20.674L3.42011 20.8092L3.45579 20.9441L3.49281 21.0784L3.53123 21.2124L3.571 21.3459L3.61213 21.479L3.65461 21.6116L3.69843 21.7436L3.74359 21.8752L3.7901 22.0063L3.83792 22.1369L3.88706 22.2668L3.93755 22.3963L3.98931 22.5252L4.04238 22.6536L4.09677 22.7813L4.15243 22.9084L4.20938 23.035L4.2676 23.161L4.32709 23.2862L4.38784 23.4109L4.44985 23.5348L4.5131 23.6581L4.5776 23.7808L4.64332 23.9027L4.71027 24.0239L4.77843 24.1444L4.84779 24.2642L4.91836 24.3833L4.99013 24.5015L5.06304 24.619L5.13717 24.7358L5.21244 24.8517L5.28888 24.9669L5.36647 25.0813L5.44518 25.1948L5.52501 25.3075L5.606 25.4194L5.68807 25.5305L5.77126 25.6406L5.85551 25.7499L5.94089 25.8583L6.02729 25.9658L6.11478 26.0724L6.20335 26.1782L6.29291 26.283L6.38353 26.3869L6.47516 26.4898L6.56783 26.5918L6.66148 26.6928L6.7561 26.7929L6.85172 26.8919L6.94831 26.9901L7.04588 27.0872L7.14438 27.1832L7.24383 27.2784L7.34418 27.3724L7.44546 27.4655L7.54767 27.5575L7.65075 27.6485L7.75466 27.7384L7.85953 27.8272L7.96527 27.915L8.07171 28.0017L8.17916 28.0874L8.28732 28.1719L8.39633 28.2553L8.50613 28.3377L8.61678 28.4189L8.72813 28.499L8.84026 28.5779L8.95309 28.6558L9.06678 28.7325L9.18109 28.808L9.29626 28.8824L9.41197 28.9556L9.52846 29.0277L9.64566 29.0986L9.7634 29.1683L9.88192 29.2368L10.001 29.3041L10.1207 29.3703L10.2411 29.4352L10.3621 29.499L10.4836 29.5615L10.6057 29.6228L10.7284 29.6829L10.8517 29.7417L10.9754 29.7994L11.0997 29.8558L11.2244 29.9109L11.3498 29.9648L11.4756 30.0175L11.6019 30.0689L11.7286 30.1191L11.8558 30.1679L11.9834 30.2156L12.1113 30.2619L12.2398 30.307L12.3686 30.3508L12.4978 30.3934L12.6274 30.4346L12.7572 30.4746L12.8876 30.5133L13.0181 30.5507L13.149 30.5868L13.2803 30.6216L13.4117 30.6552L13.5435 30.6874L13.6754 30.7183L13.8077 30.748L13.9402 30.7763L14.0728 30.8033L14.2057 30.829L14.3388 30.8535L14.4721 30.8766L14.6055 30.8984L14.739 30.9188L14.8727 30.938L15.0066 30.9559L15.1405 30.9725L15.2745 30.9877L15.4086 31.0016L15.5428 31.0143L15.6771 31.0256L15.8113 31.0356L15.9456 31.0442L16.0799 31.0517L16.2142 31.0577L16.3484 31.0625L16.4827 31.066L16.617 31.0681L16.7511 31.0689L16.8852 31.0684L17.0192 31.0667L17.1531 31.0636L17.2869 31.0592L17.4206 31.0536L17.5541 31.0466L17.6875 31.0384L17.8207 31.0289L17.9538 31.0181L18.0866 31.0059L18.2193 30.9925L18.3517 30.9778L18.4839 30.9619L18.6159 30.9446L18.7476 30.9261L18.879 30.9063L19.0102 30.8853L19.1411 30.863L19.2717 30.8394L19.4019 30.8146L19.5318 30.7886L19.6614 30.7612L19.7906 30.7327L19.9194 30.7029L20.0479 30.6718L20.1759 30.6396L20.3035 30.606L20.4307 30.5713L20.5576 30.5354L20.6839 30.4982L20.8098 30.4599L20.9352 30.4204L21.0602 30.3796L21.1846 30.3377L21.3084 30.2946L21.4319 30.2503L21.5548 30.2048L21.6771 30.1582L21.7989 30.1104L21.9201 30.0615L22.0407 30.0113L22.1608 29.9601L22.2803 29.9077L22.399 29.8543L22.5173 29.7996L22.6349 29.7438L22.7518 29.687L22.8681 29.629L22.9837 29.57L23.0986 29.5098L23.2129 29.4486L23.3264 29.3863L23.4392 29.3229L23.5512 29.2586L23.6628 29.193L23.7732 29.1266L23.8833 29.059L23.9923 28.9904L24.1006 28.9208L24.2082 28.8502L24.315 28.7785L24.4209 28.706L24.526 28.6323L24.6303 28.5578L24.7338 28.4823L24.8365 28.4057L24.9382 28.3283L25.0392 28.2498L25.1392 28.1706L25.2383 28.0903L25.3368 28.0091L25.4342 27.927L25.5305 27.8441L25.6262 27.7602L25.7207 27.6755L25.8145 27.5899L25.9073 27.5034L25.999 27.4161L26.0899 27.3279L26.1799 27.2389L26.2688 27.1491L26.3567 27.0584L26.4436 26.9671L26.5295 26.875L26.6146 26.7818L26.6984 26.6882L26.7814 26.5936L26.8632 26.4984L26.9441 26.4023L27.0239 26.3057L27.1026 26.2082L27.1804 26.11L27.257 26.0112L27.3326 25.9116L27.4071 25.8115L27.4805 25.7106L27.553 25.609L27.6241 25.507L27.6943 25.4041L27.7632 25.3008L27.8312 25.1967L27.8981 25.092L27.9637 24.9869L28.0283 24.8812L28.0918 24.7747L28.1539 24.6679L28.2151 24.5604L28.2752 24.4524L28.3339 24.3441L28.3917 24.235L28.4483 24.1254L28.5035 24.0158L28.5577 23.9052L28.6108 23.7942L28.6626 23.6829L28.7133 23.5712L28.7627 23.459L28.811 23.3465L28.8581 23.2334L28.904 23.1199L28.9487 23.0064L28.9922 22.8921L29.0344 22.7777L29.0755 22.6628L29.1154 22.5477L29.1541 22.4321L29.1914 22.3166L29.2277 22.2002L29.2626 22.084L29.2964 21.9674L29.3289 21.8507L29.3603 21.7334L29.3903 21.6162L29.4192 21.4986L29.4467 21.3808L29.4732 21.2628L29.4983 21.1446L29.5222 21.0265L29.5449 20.9078L29.5663 20.7894L29.5865 20.6705L29.6054 20.5516L29.6231 20.4327L29.6396 20.3135L29.6548 20.1945L29.6688 20.075L29.6815 19.9559L29.6931 19.8365L29.7033 19.7172L29.7123 19.5976L29.7201 19.4785L29.7266 19.3589L29.7319 19.2393L29.736 19.12L29.7389 19.0009L29.7404 18.8814L29.7408 18.7621L29.74 18.6429L29.7379 18.5238L29.7345 18.4047L29.7299 18.2861L29.7242 18.1671L29.7171 18.0485L29.7089 17.93L29.6995 17.8118L29.6888 17.6935L29.6769 17.5756L29.6638 17.4577L29.6495 17.3402L29.634 17.2227L29.6173 17.1056L29.5993 16.9885L29.5802 16.8719L29.56 16.7557L29.5385 16.6394L29.5157 16.5235L29.4919 16.408L29.4668 16.2925L29.4407 16.1778L29.4132 16.063L29.3847 15.9489L29.3549 15.8347L29.324 15.7214L29.292 15.6082L29.2588 15.4952L29.2245 15.3829L29.1891 15.271L29.1524 15.1592L29.1147 15.0483L29.0758 14.9374L29.0359 14.8272L28.9947 14.7172L28.9526 14.608L28.9092 14.499L28.8647 14.3906L28.8193 14.2829L28.7728 14.1756L28.725 14.0685L28.6764 13.9624L28.6265 13.8564L28.5757 13.7514L28.5238 13.6468L28.4707 13.5425L28.4168 13.4391L28.3617 13.3362L28.3055 13.2337L28.2486 13.1323L28.1904 13.0311L28.1313 12.9307L28.0711 12.8308L28.0102 12.7318L27.9479 12.6332L27.885 12.5354L27.8208 12.4381L27.7558 12.3417L27.69 12.2461L27.623 12.1509L27.5551 12.0566L27.4864 11.9629L27.4166 11.8701L27.346 11.7778L27.2745 11.6865L27.2021 11.5958L27.1288 11.5059L27.0546 11.4168L26.9795 11.3284L26.9035 11.2409L26.8268 11.1541L26.7492 11.0682L26.6708 10.983L26.5913 10.8986L26.5114 10.8153L26.4302 10.7324L26.3486 10.6507L26.2661 10.5697L26.1829 10.4896L26.0986 10.4102L26.014 10.332L25.9283 10.2544L25.8418 10.1778L25.755 10.1021L25.6672 10.0273L25.5785 9.9532L25.4892 9.88018L25.3994 9.80808L25.3088 9.73691L25.2175 9.66659L25.1257 9.59744L25.0329 9.52882L24.9397 9.46151L24.8458 9.39506L24.7512 9.32945L24.6563 9.26493L24.5603 9.20118L24.4643 9.13874L24.3672 9.077L24.2698 9.01634L24.1716 8.95661L24.073 8.89789L23.9739 8.84024L23.8744 8.78368L23.7739 8.72781L23.6735 8.67325L23.5722 8.61955L23.4705 8.56693L23.3684 8.51539L23.2657 8.46477L23.1626 8.41516L23.0592 8.36671L22.9551 8.31919L22.8509 8.27283L22.7461 8.22739L22.6375 8.18165L22.5354 8.13984L22.4292 8.0975L22.3232 8.05646L22.2163 8.0162L22.1094 7.97726L22.002 7.93924L21.8944 7.90238L21.7863 7.86645L21.6782 7.83175L21.5695 7.79806L21.4607 7.76545L21.3517 7.734L21.2423 7.70353L21.1325 7.6741L21.0229 7.64587L20.913 7.61872L20.8025 7.59256L20.6923 7.56761L20.5816 7.54366L20.4708 7.52086L20.3597 7.4991L20.2487 7.47849L20.1375 7.45894L20.0263 7.44052L19.9145 7.42314L19.8031 7.4069L19.6915 7.39174L19.5796 7.37767L19.4678 7.3647L19.356 7.35285L19.2441 7.34208L19.1321 7.3324L19.0201 7.32382L18.9079 7.31632L18.7961 7.30994L18.6842 7.30465L18.5719 7.30043L18.4603 7.29733L18.3484 7.2953L18.2366 7.29438L18.1246 7.29453L18.1022 7.29479L18.1374 10.2483L18.201 10.248L18.2827 10.2485L18.3644 10.2497L18.4463 10.2518L18.5282 10.2546L18.61 10.2583L18.6919 10.2628L18.7739 10.2681L18.8559 10.2742L18.9379 10.2811L19.0198 10.2888L19.1017 10.2973L19.1837 10.3066L19.2656 10.3168L19.3474 10.3277L19.4292 10.3395L19.511 10.352L19.5926 10.3654L19.6743 10.3796L19.7558 10.3946L19.8372 10.4104L19.9186 10.427L19.9999 10.4444L20.081 10.4627L20.1619 10.4817L20.2428 10.5016L20.3235 10.5222L20.404 10.5437L20.4845 10.566L20.5647 10.5891L20.6448 10.613L20.7247 10.6376L20.8043 10.6631L20.8838 10.6894L20.9631 10.7165L21.0422 10.7444L21.121 10.7731L21.1996 10.8025L21.2779 10.8328L21.356 10.8639L21.4339 10.8957L21.5114 10.9284L21.5887 10.9618L21.6657 10.996L21.7424 11.0309L21.8187 11.0667L21.8949 11.1032L21.9706 11.1406L22.046 11.1787L22.1211 11.2175L22.1959 11.2571L22.2703 11.2975L22.3443 11.3386L22.4179 11.3805L22.4913 11.4232L22.5642 11.4666L22.6367 11.5107L22.7087 11.5556L22.7804 11.6013L22.8517 11.6476L22.9226 11.6947L22.993 11.7425L23.063 11.7911L23.1325 11.8404L23.2015 11.8903L23.2701 11.9411L23.3383 11.9925L23.4058 12.0447L23.473 12.0975L23.5396 12.151L23.6058 12.2052L23.6714 12.2602L23.7365 12.3157L23.8011 12.372L23.8652 12.4289L23.9287 12.4866L23.9916 12.5449L24.054 12.6038L24.1158 12.6634L24.177 12.7237L24.2377 12.7845L24.2978 12.8461L24.3573 12.9083L24.4162 12.9711L24.4745 13.0345L24.5321 13.0986L24.5892 13.1632L24.6456 13.2285L24.7014 13.2943L24.7565 13.3608L24.811 13.4278L24.8649 13.4955L24.918 13.5637L24.9705 13.6325L25.0223 13.7019L25.0735 13.7717L25.1239 13.8422L25.1737 13.9132L25.2227 13.9847L25.2711 14.0568L25.3187 14.1294L25.3656 14.2026L25.4118 14.2762L25.4573 14.3503L25.502 14.425L25.546 14.5002L25.5892 14.5757L25.6317 14.6518L25.6734 14.7284L25.7144 14.8055L25.7546 14.883L25.7939 14.9609L25.8326 15.0394L25.8704 15.1182L25.9074 15.1974L25.9437 15.2771L25.9791 15.3572L26.0138 15.4377L26.0476 15.5186L26.0807 15.5999L26.1129 15.6816L26.1442 15.7636L26.1747 15.846L26.2044 15.9288L26.2333 16.0119L26.2614 16.0954L26.2885 16.1792L26.3148 16.2633L26.3403 16.3478L26.3649 16.4325L26.3887 16.5176L26.4115 16.603L26.4336 16.6886L26.4547 16.7745L26.475 16.8607L26.4944 16.9472L26.5128 17.0339L26.5304 17.1208L26.5471 17.2079L26.5629 17.2954L26.5779 17.3831L26.5919 17.4708L26.605 17.5589L26.6172 17.6471L26.6285 17.7355L26.639 17.8241L26.6484 17.9129L26.657 18.0018L26.6647 18.0909L26.6714 18.18L26.6772 18.2694L26.6821 18.3588L26.686 18.4483L26.6891 18.538L26.6912 18.6278L26.6924 18.7176L26.6926 18.8076L26.6919 18.8975L26.6903 18.9875L26.6877 19.0776L26.6842 19.1678L26.6797 19.2579L26.6744 19.3481L26.668 19.4384L26.6608 19.5285L26.6525 19.6187L26.6434 19.7089L26.6333 19.799L26.6223 19.8892L26.6103 19.9792L26.5974 20.0692L26.5835 20.1592L26.5687 20.249L26.553 20.3388L26.5362 20.4285L26.5186 20.5182L26.5 20.6076L26.4804 20.697L26.46 20.7863L26.4386 20.8754L26.4162 20.9643L26.3929 21.0532L26.3687 21.1418L26.3435 21.2303L26.3174 21.3186L26.2904 21.4066L26.2624 21.4946L26.2334 21.5823L26.2036 21.6697L26.1728 21.7569L26.1411 21.8439L26.1085 21.9306L26.0749 22.0171L26.0405 22.1033L26.0051 22.1893L25.9688 22.275L25.9315 22.3603L25.8934 22.4453L25.8544 22.5301L25.8144 22.6145L25.7736 22.6986L25.7318 22.7823L25.6891 22.8657L25.6456 22.9488L25.6011 23.0314L25.5558 23.1137L25.5096 23.1956L25.4625 23.2771L25.4145 23.3582L25.3657 23.4389L25.3159 23.5191L25.2654 23.599L25.2139 23.6784L25.1616 23.7574L25.1084 23.8358L25.0544 23.9138L24.9995 23.9914L24.9438 24.0685L24.8872 24.145L24.8299 24.2211L24.7717 24.2967L24.7126 24.3717L24.6528 24.4462L24.592 24.5203L24.5306 24.5937L24.4683 24.6666L24.4052 24.739L24.3413 24.8107L24.2766 24.8819L24.2112 24.9525L24.1449 25.0225L24.078 25.092L24.0102 25.1608L23.9417 25.229L23.8724 25.2966L23.8024 25.3635L23.7316 25.4298L23.6601 25.4955L23.5879 25.5605L23.5149 25.6248L23.4412 25.6885L23.3668 25.7515L23.2918 25.8138L23.2159 25.8755L23.1395 25.9364L23.0623 25.9966L22.9844 26.0561L22.906 26.1149L22.8268 26.1729L22.7469 26.2302L22.6665 26.2869L22.5854 26.3427L22.5037 26.3978L22.4212 26.4521L22.3382 26.5056L22.2546 26.5584L22.1705 26.6104L22.0856 26.6616L22.0003 26.712L21.9143 26.7616L21.8278 26.8104L21.7406 26.8584L21.653 26.9056L21.5648 26.952L21.476 26.9975L21.3867 27.0421L21.297 27.086L21.2066 27.129L21.1158 27.1711L21.0245 27.2124L20.9327 27.2528L20.8404 27.2924L20.7476 27.331L20.6544 27.3688L20.5607 27.4057L20.4666 27.4417L20.3721 27.4769L20.2771 27.5111L20.1817 27.5444L20.0859 27.5768L19.9897 27.6083L19.8931 27.6388L19.7962 27.6685L19.6989 27.6973L19.6011 27.725L19.5031 27.7519L19.4047 27.7778L19.306 27.8027L19.2069 27.8268L19.1076 27.8499L19.0078 27.872L18.9079 27.8931L18.8077 27.9133L18.7071 27.9326L18.6064 27.9509L18.5053 27.9682L18.404 27.9845L18.3026 27.9998L18.2008 28.0142L18.0988 28.0275L17.9966 28.04L17.8943 28.0513L17.7918 28.0618L17.6891 28.0712L17.5862 28.0796L17.4832 28.087L17.38 28.0934L17.2767 28.0988L17.1733 28.1032L17.0698 28.1067L16.9661 28.109L16.8624 28.1104L16.7585 28.1108L16.6547 28.1102L16.5508 28.1085L16.4468 28.1059L16.3427 28.1022L16.2387 28.0975L16.1346 28.0917L16.0306 28.085L15.9265 28.0773L15.8225 28.0685L15.7184 28.0587L15.6144 28.0478L15.5105 28.036L15.4066 28.0232L15.3027 28.0093L15.199 27.9944L15.0954 27.9785L14.9918 27.9615L14.8883 27.9435L14.785 27.9246L14.6818 27.9046L14.5788 27.8835L14.4759 27.8615L14.3732 27.8384L14.2706 27.8143L14.1683 27.7892L14.0661 27.7631L13.9641 27.736L13.8623 27.7078L13.7609 27.6787L13.6596 27.6486L13.5585 27.6174L13.4578 27.5852L13.3573 27.5521L13.257 27.5179L13.1571 27.4828L13.0576 27.4466L12.9582 27.4094L12.8592 27.3712L12.7606 27.3321L12.6623 27.292L12.5643 27.2509L12.4667 27.2088L12.3696 27.1657L12.2727 27.1217L12.1763 27.0767L12.0803 27.0307L11.9847 26.9837L11.8895 26.9358L11.7948 26.887L11.7005 26.8371L11.6067 26.7864L11.5134 26.7347L11.4205 26.682L11.3281 26.6284L11.2362 26.5739L11.1448 26.5184L11.0539 26.4621L10.9636 26.4047L10.8739 26.3465L10.7846 26.2873L10.696 26.2273L10.6078 26.1664L10.5203 26.1046L10.4334 26.0418L10.347 25.9782L10.2612 25.9137L10.1762 25.8484L10.0917 25.7821L10.0078 25.715L9.92462 25.6471L9.84202 25.5782L9.76013 25.5086L9.67893 25.438L9.59836 25.3667L9.51849 25.2945L9.4394 25.2216L9.36093 25.1478L9.28317 25.0732L9.20618 24.9977L9.12997 24.9215L9.05446 24.8445L8.97966 24.7668L8.90563 24.6882L8.83246 24.6089L8.76 24.5288L8.68831 24.4479L8.61748 24.3663L8.54735 24.284L8.47815 24.201L8.40966 24.1171L8.3421 24.0327L8.27532 23.9474L8.2094 23.8615L8.14433 23.7749L8.08005 23.6877L8.0167 23.5996L7.95428 23.511L7.89265 23.4217L7.83194 23.3317L7.77215 23.2412L7.71325 23.1499L7.65525 23.058L7.59818 22.9655L7.54203 22.8724L7.48681 22.7788L7.43253 22.6844L7.37919 22.5896L7.32681 22.4941L7.27539 22.3981L7.22493 22.3015L7.17544 22.2044L7.12694 22.1067L7.07941 22.0085L7.03288 21.9098L6.98734 21.8105L6.9428 21.7109L6.89927 21.6106L6.85676 21.5099L6.81526 21.4087L6.77479 21.3071L6.73535 21.205L6.69694 21.1024L6.65957 20.9995L6.62325 20.896L6.58798 20.7922L6.55377 20.688L6.52061 20.5834L6.48852 20.4784L6.4575 20.373L6.42755 20.2673L6.39868 20.1612L6.37091 20.0548L6.34421 19.948L6.3186 19.8409L6.29409 19.7335L6.27067 19.6258L6.24837 19.5179L6.22716 19.4096L6.20707 19.301L6.18808 19.1922L6.17022 19.0832L6.15348 18.9739L6.13786 18.8644L6.12336 18.7547L6.11 18.6448L6.09776 18.5346L6.08666 18.4244L6.07669 18.3139L6.06787 18.2032L6.06019 18.0925L6.05365 17.9815L6.04825 17.8705L6.04401 17.7594L6.04091 17.6481L6.03897 17.5367L6.03817 17.4252L6.03854 17.3137L6.04005 17.2022L6.04273 17.0906L6.04655 16.9789L6.05155 16.8672L6.05771 16.7555L6.06501 16.6438L6.07349 16.5321L6.08312 16.4204L6.09392 16.3088L6.10589 16.1971L6.11901 16.0856L6.13331 15.9741L6.14876 15.8627L6.16537 15.7514L6.18315 15.6402L6.20209 15.529L6.22219 15.4181L6.24346 15.3072L6.26588 15.1965L6.28946 15.086L6.31421 14.9755L6.34011 14.8653L6.36716 14.7553L6.39537 14.6455L6.42474 14.5359L6.45526 14.4265L6.48692 14.3174L6.51974 14.2085L6.5537 14.0999L6.58881 13.9915L6.62506 13.8834L6.66245 13.7756L6.70098 13.6682L6.74065 13.561L6.78144 13.4541L6.82336 13.3476L6.86641 13.2415L6.91059 13.1357L6.95588 13.0303L7.00229 12.9252L7.04982 12.8206L7.09846 12.7163L7.1482 12.6125L7.19905 12.5091L7.251 12.4061L7.30404 12.3036L7.35817 12.2016L7.41339 12.1L7.46969 11.9989L7.52707 11.8983L7.58552 11.7982L7.64505 11.6986L7.70564 11.5996L7.76728 11.501L7.83 11.4031L7.89374 11.3056L7.95857 11.2088L8.02433 11.1125L8.09127 11.0169L8.15914 10.9217L8.22802 10.8272L8.298 10.7334L8.36891 10.6402L8.44091 10.5476L8.51384 10.4556L8.58779 10.3644L8.66267 10.2738L8.73857 10.1839L8.81548 10.0946L8.89332 10.0061L8.9721 9.91827L9.05189 9.83119L9.13254 9.74479L9.2142 9.65918L9.2968 9.57425L9.38026 9.49018L9.46465 9.4068L9.54997 9.3242L9.63623 9.24244L9.72335 9.16139L9.81132 9.08125L9.90023 9.00182L9.99 8.92331L10.0805 8.84557L10.172 8.76869L10.2644 8.69265L10.3575 8.61746L10.4515 8.54313L10.5463 8.46972L10.6419 8.39716L10.7383 8.32553L10.8355 8.25475L10.9335 8.18489L11.0322 8.11596L11.1318 8.04796L11.2321 7.98089L11.3331 7.91482L11.4349 7.8496L11.5374 7.78539L11.6406 7.72213L11.7446 7.65985L11.8492 7.59854L11.9545 7.53822L12.0605 7.47889L12.1672 7.42055L12.2745 7.36324L12.3825 7.30694L12.4911 7.25166L12.6004 7.19741L12.7103 7.14419L12.8207 7.09201L12.9319 7.04089L13.0435 6.99082L13.1558 6.9418L13.2686 6.89386L13.382 6.847L13.4959 6.80121L13.6103 6.7565L13.7253 6.71289L13.8408 6.67038L13.9569 6.62897L14.0733 6.58866L14.1903 6.54947L14.3077 6.51139L14.4256 6.47445L14.5439 6.43863L14.6627 6.40394L14.7819 6.3704L14.9014 6.33799L15.0214 6.30673L15.1418 6.27662L15.2626 6.24768L15.3837 6.2199L15.5052 6.19327L15.627 6.16782L15.7491 6.14354L15.8716 6.12044L15.9943 6.09852L16.1173 6.07778L16.2407 6.05823L16.3643 6.03987L16.4881 6.02271L16.6121 6.00673L16.6584 6.00123ZM16.7108 10.3819L16.6751 7.39593L16.5734 7.41002L16.4641 7.42627L16.3547 7.4436L16.246 7.46193L16.1371 7.48137L16.0288 7.50181L15.9207 7.5233L15.813 7.54579L15.7056 7.56935L15.5984 7.59396L15.4915 7.61957L15.385 7.6462L15.2786 7.67389L15.1765 7.70155L15.0676 7.73223L14.9625 7.7629L14.8579 7.79459L14.7538 7.8272L14.6499 7.86089L14.5464 7.89558L14.4434 7.9312L14.3409 7.96775L14.2389 8.00539L14.1372 8.04387L14.036 8.08343L13.9356 8.12384L13.8351 8.16534L13.7355 8.20769L13.6363 8.25096L13.5378 8.29516L13.4395 8.34036L13.3418 8.38649L13.245 8.4334L13.1483 8.48139L13.0526 8.53014L12.957 8.57999L12.8624 8.63045L12.768 8.68214L12.6745 8.73438L12.5816 8.78762L12.4892 8.84179L12.3975 8.89673L12.3062 8.95267L12.2159 9.00924L12.126 9.0668L12.0369 9.12514L11.9485 9.18426L11.8607 9.2443L11.7734 9.30519L11.6871 9.36662L11.6013 9.42914L11.5163 9.49234L11.4319 9.55633L11.3484 9.621L11.2654 9.68661L11.1834 9.75283L11.102 9.81983L11.0213 9.88775L10.9416 9.95614L10.8624 10.0254L10.784 10.0955L10.7065 10.1661L10.6298 10.2374L10.5537 10.3096L10.4786 10.3822L10.4043 10.4556L10.3307 10.5298L10.258 10.6045L10.186 10.68L10.115 10.7561L10.0448 10.8327L9.97535 10.9101L9.9067 10.9881L9.83922 11.0665L9.77236 11.1457L9.70636 11.2256L9.64129 11.3059L9.57716 11.3867L9.51374 11.4683L9.45132 11.5503L9.38976 11.6329L9.32914 11.716L9.26937 11.7997L9.21062 11.8838L9.15272 11.9685L9.09568 12.0537L9.03958 12.1394L8.98449 12.2255L8.93033 12.3121L8.87704 12.3993L8.82467 12.4868L8.77332 12.5748L8.72283 12.6633L8.67342 12.752L8.62488 12.8413L8.57719 12.9311L8.53067 13.0211L8.48501 13.1116L8.44036 13.2025L8.39665 13.2936L8.35394 13.3853L8.31218 13.4771L8.27143 13.5694L8.23161 13.662L8.19288 13.7549L8.15509 13.8481L8.11823 13.9416L8.08239 14.0354L8.04763 14.1295L8.01374 14.2239L7.98101 14.3184L7.94914 14.4133L7.91836 14.5084L7.88852 14.6038L7.85976 14.6993L7.83194 14.795L7.80522 14.8909L7.77943 14.9871L7.75468 15.0834L7.73096 15.1799L7.70825 15.2766L7.68655 15.3733L7.66586 15.4703L7.64622 15.5674L7.62757 15.6645L7.60994 15.7619L7.59335 15.8592L7.57776 15.9567L7.56321 16.0542L7.54966 16.1519L7.53715 16.2495L7.52565 16.3473L7.51517 16.445L7.50571 16.5429L7.49727 16.6407L7.48985 16.7384L7.48345 16.8363L7.47805 16.9342L7.47368 17.0319L7.47033 17.1297L7.46799 17.2273L7.46666 17.325L7.46634 17.4227L7.46704 17.5202L7.46874 17.6176L7.47145 17.715L7.47516 17.8122L7.47988 17.9094L7.4856 18.0065L7.49232 18.1033L7.50004 18.2001L7.50875 18.2967L7.51846 18.3932L7.52916 18.4894L7.54084 18.5856L7.55352 18.6815L7.56717 18.7772L7.58181 18.8728L7.59742 18.968L7.61401 19.0631L7.63158 19.158L7.6501 19.2525L7.66959 19.3469L7.69004 19.441L7.71146 19.5349L7.73381 19.6283L7.75714 19.7216L7.7814 19.8145L7.80662 19.9072L7.83272 19.9994L7.85984 20.0915L7.88781 20.1831L7.9168 20.2744L7.94665 20.3655L7.97743 20.456L8.00914 20.5462L8.04171 20.6361L8.07522 20.7256L8.10966 20.8147L8.14496 20.9033L8.18111 20.9915L8.2182 21.0794L8.25615 21.1668L8.29503 21.2537L8.3347 21.3403L8.3753 21.4263L8.41675 21.5119L8.45898 21.597L8.50215 21.6817L8.5461 21.7659L8.59091 21.8496L8.63657 21.9327L8.68301 22.0154L8.73031 22.0975L8.77839 22.1791L8.82732 22.2602L8.87704 22.3408L8.92753 22.4208L8.9788 22.5002L9.03093 22.5792L9.08368 22.6574L9.13737 22.7352L9.19168 22.8123L9.24685 22.8889L9.30272 22.9648L9.35937 23.0402L9.41672 23.1149L9.47485 23.1891L9.53361 23.2626L9.59314 23.3354L9.65337 23.4077L9.71431 23.4793L9.77594 23.5502L9.83828 23.6206L9.90124 23.6901L9.96491 23.7591L10.0292 23.8274L10.0942 23.895L10.1598 23.9619L10.2261 24.0281L10.293 24.0936L10.3605 24.1585L10.4287 24.2226L10.4973 24.286L10.5668 24.3487L10.6367 24.4106L10.7072 24.4718L10.7783 24.5323L10.85 24.5921L10.9223 24.6511L10.995 24.7093L11.0684 24.7668L11.1422 24.8235L11.2166 24.8795L11.2916 24.9347L11.367 24.9891L11.4429 25.0427L11.5193 25.0956L11.5962 25.1476L11.6737 25.199L11.7515 25.2494L11.8298 25.2991L11.9086 25.348L11.9878 25.3961L12.0674 25.4434L12.1475 25.4898L12.2279 25.5354L12.3089 25.5802L12.3901 25.6242L12.4718 25.6674L12.5539 25.7097L12.6362 25.7511L12.7191 25.7919L12.8023 25.8317L12.8857 25.8707L12.9695 25.9088L13.0537 25.9461L13.1381 25.9825L13.2229 26.018L13.308 26.0528L13.3934 26.0867L13.479 26.1197L13.5649 26.1518L13.6511 26.1831L13.7375 26.2135L13.8242 26.2431L13.9111 26.2718L13.9982 26.2996L14.0856 26.3265L14.1732 26.3526L14.2609 26.3778L14.3488 26.4021L14.4369 26.4255L14.5252 26.4481L14.6137 26.4698L14.7023 26.4906L14.791 26.5105L14.8799 26.5296L14.9689 26.5478L15.058 26.565L15.1473 26.5814L15.2365 26.5969L15.3259 26.6116L15.4154 26.6253L15.5049 26.6382L15.5945 26.6501L15.6842 26.6613L15.7738 26.6715L15.8635 26.6808L15.9533 26.6892L16.0431 26.6968L16.1328 26.7035L16.2226 26.7093L16.3123 26.7142L16.402 26.7183L16.4917 26.7215L16.5813 26.7238L16.6709 26.7252L16.7604 26.7257L16.8499 26.7254L16.9392 26.7242L17.0285 26.7222L17.1177 26.7192L17.2068 26.7154L17.2957 26.7107L17.3846 26.7052L17.4732 26.6988L17.5618 26.6916L17.6502 26.6834L17.7385 26.6745L17.8266 26.6647L17.9145 26.654L18.0023 26.6425L18.0898 26.6302L18.1771 26.617L18.2642 26.6029L18.351 26.5881L18.4378 26.5723L18.5242 26.5558L18.6104 26.5385L18.6964 26.5202L18.7819 26.5012L18.8673 26.4815L18.9524 26.4607L19.0373 26.4393L19.1218 26.4171L19.2061 26.394L19.29 26.3701L19.3736 26.3454L19.4568 26.32L19.5397 26.2938L19.6224 26.2667L19.7046 26.2389L19.7865 26.2103L19.868 26.1809L19.9491 26.1508L20.0299 26.1199L20.1102 26.0882L20.1902 26.0558L20.2698 26.0226L20.3489 25.9887L20.4277 25.9541L20.5059 25.9187L20.5838 25.8825L20.6613 25.8457L20.7381 25.8082L20.8148 25.7698L20.8907 25.7308L20.9664 25.691L21.0414 25.6507L21.116 25.6096L21.1902 25.5678L21.2638 25.5253L21.3369 25.4821L21.4096 25.4383L21.4816 25.3938L21.5532 25.3486L21.6242 25.3028L21.6947 25.2563L21.7647 25.2091L21.8341 25.1613L21.9028 25.113L21.9712 25.0639L22.0389 25.0144L22.106 24.964L22.1726 24.9131L22.2384 24.8617L22.3039 24.8096L22.3688 24.7569L22.4327 24.7037L22.4965 24.6497L22.5594 24.5954L22.6216 24.5405L22.6835 24.4848L22.7444 24.4289L22.8049 24.3722L22.8647 24.315L22.9238 24.2574L22.9823 24.1991L23.0402 24.1404L23.0974 24.0811L23.1538 24.0214L23.2097 23.9611L23.265 23.9004L23.3193 23.8393L23.3733 23.7774L23.4263 23.7153L23.4787 23.6527L23.5305 23.5895L23.5815 23.5262L23.6318 23.4621L23.6815 23.3977L23.7304 23.3328L23.7785 23.2676L23.8259 23.2021L23.8727 23.1359L23.9187 23.0695L23.964 23.0026L24.0086 22.9353L24.0523 22.8679L24.0955 22.7999L24.1378 22.7315L24.1794 22.6629L24.2201 22.5939L24.2603 22.5244L24.2995 22.4549L24.3382 22.3848L24.376 22.3145L24.4129 22.244L24.4493 22.1729L24.4847 22.1019L24.5195 22.0302L24.5533 21.9588L24.5867 21.8865L24.6189 21.8144L24.6506 21.7417L24.6815 21.6691L24.7115 21.5961L24.7408 21.5229L24.7693 21.4494L24.7969 21.3759L24.8239 21.3019L24.85 21.2279L24.8753 21.1537L24.8998 21.0793L24.9236 21.0047L24.9466 20.9299L24.9687 20.8551L24.9901 20.78L25.0106 20.7049L25.0304 20.6296L25.0493 20.5542L25.0675 20.4788L25.0848 20.4029L25.1013 20.3272L25.1172 20.2514L25.132 20.1756L25.1462 20.0996L25.1596 20.0234L25.1721 19.9474L25.1839 19.8712L25.1948 19.795L25.2049 19.7188L25.2143 19.6426L25.2228 19.5661L25.2305 19.4901L25.2376 19.4135L25.2437 19.3373L25.249 19.2612L25.2536 19.1848L25.2573 19.1086L25.2603 19.0325L25.2625 18.9562L25.2638 18.8803L25.2644 18.8041L25.2642 18.7281L25.2633 18.6522L25.2615 18.5765L25.2589 18.5007L25.2556 18.4251L25.2514 18.3497L25.2465 18.2742L25.2408 18.1988L25.2344 18.1239L25.2272 18.0487L25.2192 17.974L25.2104 17.8991L25.2009 17.8246L25.1906 17.7502L25.1795 17.6758L25.1677 17.6018L25.1551 17.528L25.1418 17.4544L25.1277 17.381L25.1128 17.3075L25.0972 17.2345L25.0809 17.1618L25.0639 17.0892L25.046 17.0167L25.0276 16.9448L25.0082 16.8727L24.9883 16.8013L24.9676 16.7299L24.9461 16.6589L24.924 16.5881L24.9011 16.5175L24.8776 16.4474L24.8533 16.3776L24.8282 16.3078L24.8027 16.2386L24.7763 16.1696L24.7492 16.1011L24.7215 16.0327L24.693 15.9646L24.664 15.8972L24.6341 15.8298L24.6037 15.7629L24.5726 15.6965L24.5409 15.6302L24.5084 15.5643L24.4754 15.499L24.4416 15.4338L24.4073 15.3693L24.3723 15.3052L24.3366 15.2411L24.3005 15.1778L24.2635 15.1148L24.226 15.0523L24.1879 14.99L24.1493 14.9284L24.1099 14.867L24.07 14.8062L24.0295 14.7459L23.9885 14.686L23.9467 14.6264L23.9045 14.5675L23.8618 14.509L23.8183 14.4509L23.7744 14.3934L23.7298 14.3363L23.685 14.2798L23.6393 14.2236L23.5932 14.168L23.5465 14.1129L23.4993 14.0583L23.4517 14.0044L23.4034 13.9507L23.3548 13.8978L23.3056 13.8453L23.256 13.7935L23.2057 13.742L23.1551 13.6912L23.1038 13.6407L23.0522 13.591L23.0003 13.5419L22.9477 13.4932L22.8947 13.4451L22.8412 13.3976L22.7874 13.3507L22.7329 13.3042L22.6784 13.2586L22.6232 13.2133L22.5676 13.1687L22.5117 13.1247L22.4553 13.0811L22.3985 13.0383L22.3416 12.9962L22.2839 12.9545L22.2259 12.9133L22.1678 12.873L22.109 12.8331L22.0502 12.7941L21.9909 12.7554L21.9312 12.7174L21.8712 12.68L21.811 12.6434L21.7502 12.6072L21.6894 12.5718L21.628 12.5369L21.5666 12.5028L21.5048 12.4693L21.4426 12.4363L21.3802 12.404L21.3176 12.3725L21.2546 12.3414L21.1914 12.311L21.128 12.2814L21.0645 12.2524L21.0003 12.2239L20.9364 12.1962L20.872 12.1691L20.8074 12.1426L20.7426 12.1169L20.6778 12.0919L20.6126 12.0675L20.5471 12.0436L20.4817 12.0206L20.416 11.9981L20.35 11.9763L20.2842 11.9552L20.218 11.9348L20.1519 11.915L20.0852 11.8958L20.0187 11.8774L19.9521 11.8597L19.8853 11.8426L19.8185 11.8261L19.7513 11.8104L19.6843 11.7953L19.6173 11.7809L19.5499 11.7672L19.4825 11.754L19.4154 11.7418L19.3478 11.73L19.2804 11.719L19.2127 11.7085L19.1454 11.6989L19.0775 11.6897L19.0101 11.6815L18.9425 11.6738L18.8748 11.6667L18.8073 11.6604L18.7396 11.6547L18.6722 11.6496L18.6044 11.6453L18.5369 11.6416L18.4696 11.6386L18.4018 11.6362L18.3345 11.6345L18.2672 11.6335L18.1999 11.6331L18.154 11.6333L18.1888 14.5506L18.2096 14.5507L18.2483 14.5512L18.287 14.5522L18.3258 14.5534L18.3646 14.5552L18.4035 14.5573L18.4424 14.5597L18.4813 14.5627L18.5203 14.566L18.5593 14.5697L18.5984 14.5738L18.6374 14.5783L18.6765 14.5832L18.7156 14.5886L18.7547 14.5943L18.7938 14.6005L18.8329 14.607L18.8719 14.614L18.9111 14.6214L18.9501 14.6291L18.9891 14.6374L19.0282 14.646L19.0672 14.655L19.1061 14.6644L19.1451 14.6743L19.1839 14.6845L19.2227 14.6952L19.2616 14.7062L19.3003 14.7178L19.3389 14.7297L19.3775 14.742L19.4161 14.7548L19.4545 14.7679L19.4929 14.7814L19.5312 14.7954L19.5693 14.8098L19.6075 14.8245L19.6455 14.8398L19.6833 14.8554L19.7211 14.8714L19.7589 14.8878L19.7964 14.9047L19.8339 14.9219L19.8712 14.9396L19.9084 14.9576L19.9455 14.9761L19.9823 14.995L20.0191 15.0143L20.0557 15.034L20.0922 15.0541L20.1285 15.0745L20.1647 15.0954L20.2006 15.1166L20.2364 15.1384L20.272 15.1605L20.3075 15.1829L20.3427 15.2057L20.3778 15.229L20.4127 15.2527L20.4474 15.2767L20.4818 15.3012L20.5161 15.326L20.5502 15.3512L20.584 15.3767L20.6176 15.4027L20.651 15.4291L20.6841 15.4558L20.717 15.4828L20.7497 15.5103L20.7821 15.5382L20.8143 15.5664L20.8463 15.595L20.8779 15.6239L20.9093 15.6532L20.9404 15.6829L20.9713 15.713L21.0019 15.7433L21.0322 15.7741L21.0623 15.8051L21.0919 15.8366L21.1214 15.8684L21.1505 15.9006L21.1794 15.933L21.208 15.9659L21.2362 15.999L21.2642 16.0325L21.2917 16.0663L21.319 16.1005L21.346 16.1349L21.3726 16.1698L21.399 16.2049L21.4249 16.2403L21.4505 16.276L21.4758 16.3121L21.5007 16.3485L21.5253 16.3852L21.5495 16.4222L21.5734 16.4595L21.5969 16.497L21.62 16.5349L21.6428 16.5731L21.6651 16.6115L21.6872 16.6502L21.7088 16.6892L21.73 16.7285L21.7509 16.768L21.7713 16.8078L21.7915 16.8479L21.8111 16.8882L21.8303 16.9288L21.8492 16.9696L21.8677 17.0108L21.8857 17.0521L21.9033 17.0937L21.9206 17.1355L21.9373 17.1775L21.9537 17.2198L21.9697 17.2623L21.9852 17.305L22.0002 17.348L22.0149 17.3911L22.029 17.4344L22.0427 17.478L22.0561 17.5218L22.0689 17.5657L22.0813 17.6099L22.0933 17.6542L22.1049 17.6987L22.1158 17.7435L22.1264 17.7883L22.1366 17.8333L22.1462 17.8786L22.1554 17.924L22.1641 17.9694L22.1723 18.0151L22.1801 18.061L22.1875 18.1069L22.1942 18.153L22.2005 18.1992L22.2064 18.2456L22.2118 18.2921L22.2167 18.3387L22.221 18.3854L22.2249 18.4322L22.2284 18.4792L22.2312 18.5261L22.2337 18.5733L22.2355 18.6205L22.237 18.6678L22.2379 18.7152L22.2383 18.7626L22.2382 18.81L22.2376 18.8576L22.2365 18.9053L22.2349 18.953L22.2328 19.0008L22.2302 19.0485L22.227 19.0963L22.2234 19.1442L22.2192 19.1921L22.2145 19.24L22.2093 19.2879L22.2036 19.3358L22.1973 19.3838L22.1906 19.4318L22.1834 19.4797L22.1756 19.5276L22.1673 19.5755L22.1585 19.6234L22.1491 19.6713L22.1393 19.7192L22.1289 19.767L22.1179 19.8147L22.1066 19.8625L22.0946 19.9102L22.0821 19.9579L22.0692 20.0054L22.0556 20.0529L22.0416 20.1003L22.027 20.1476L22.012 20.1949L21.9964 20.2421L21.9803 20.2892L21.9637 20.3362L21.9464 20.383L21.9287 20.4298L21.9106 20.4764L21.8919 20.523L21.8726 20.5694L21.8529 20.6157L21.8327 20.6618L21.8119 20.7079L21.7906 20.7537L21.7688 20.7994L21.7464 20.8449L21.7237 20.8903L21.7003 20.9355L21.6764 20.9806L21.652 21.0254L21.6272 21.07L21.6019 21.1145L21.576 21.1588L21.5496 21.2029L21.5228 21.2468L21.4953 21.2905L21.4675 21.3339L21.4392 21.3771L21.4103 21.4202L21.381 21.4629L21.3511 21.5055L21.3208 21.5477L21.2899 21.5898L21.2587 21.6316L21.2269 21.6731L21.1946 21.7143L21.1619 21.7554L21.1287 21.7961L21.0951 21.8365L21.0609 21.8767L21.0263 21.9166L20.9912 21.9561L20.9557 21.9954L20.9197 22.0344L20.8832 22.073L20.8463 22.1114L20.8089 22.1495L20.7711 22.1872L20.7329 22.2245L20.6942 22.2616L20.655 22.2983L20.6155 22.3346L20.5755 22.3706L20.535 22.4063L20.4942 22.4416L20.4529 22.4766L20.4112 22.5111L20.3691 22.5453L20.3265 22.5792L20.2836 22.6126L20.2403 22.6456L20.1965 22.6783L20.1524 22.7106L20.1079 22.7425L20.0629 22.7739L20.0176 22.805L19.9719 22.8356L19.9258 22.8659L19.8794 22.8957L19.8326 22.9251L19.7853 22.9541L19.7378 22.9826L19.6899 23.0107L19.6417 23.0383L19.593 23.0655L19.544 23.0923L19.4948 23.1186L19.4451 23.1444L19.3952 23.1699L19.3449 23.1947L19.2943 23.2192L19.2433 23.2432L19.192 23.2667L19.1405 23.2897L19.0886 23.3122L19.0365 23.3343L18.9841 23.3558L18.9313 23.3769L18.8783 23.3974L18.825 23.4175L18.7713 23.4371L18.7175 23.4561L18.6634 23.4747L18.609 23.4927L18.5544 23.5102L18.4996 23.5272L18.4445 23.5436L18.3891 23.5596L18.3335 23.575L18.2777 23.5899L18.2217 23.6042L18.1654 23.618L18.1089 23.6312L18.0523 23.644L17.9954 23.6561L17.9384 23.6678L17.8811 23.6788L17.8237 23.6894L17.7661 23.6993L17.7083 23.7087L17.6504 23.7176L17.5922 23.7258L17.534 23.7336L17.4756 23.7407L17.4171 23.7473L17.3584 23.7533L17.2996 23.7587L17.2406 23.7635L17.1816 23.7679L17.1224 23.7715L17.0631 23.7747L17.0038 23.7772L16.9443 23.7791L16.8847 23.7805L16.8251 23.7812L16.7654 23.7815L16.7056 23.7811L16.6458 23.7801L16.5859 23.7785L16.5259 23.7763L16.4659 23.7735L16.4059 23.7701L16.3458 23.7662L16.2857 23.7616L16.2256 23.7564L16.1655 23.7506L16.1054 23.7443L16.0452 23.7373L15.9852 23.7297L15.925 23.7215L15.8649 23.7128L15.8049 23.7033L15.7449 23.6934L15.6849 23.6828L15.6249 23.6716L15.565 23.6598L15.5052 23.6474L15.4454 23.6344L15.3857 23.6207L15.3261 23.6065L15.2665 23.5918L15.207 23.5763L15.1477 23.5602L15.0884 23.5436L15.0294 23.5264L14.9703 23.5085L14.9114 23.4901L14.8526 23.4711L14.794 23.4514L14.7355 23.4312L14.6772 23.4103L14.619 23.3888L14.561 23.3668L14.5031 23.3442L14.4454 23.3209L14.3879 23.2971L14.3306 23.2727L14.2735 23.2477L14.2166 23.2221L14.1599 23.1959L14.1033 23.1691L14.0471 23.1417L13.9911 23.1138L13.9353 23.0852L13.8797 23.0561L13.8244 23.0264L13.7693 22.9961L13.7145 22.9653L13.6599 22.9339L13.6057 22.9019L13.5517 22.8693L13.498 22.8362L13.4445 22.8025L13.3914 22.7683L13.3385 22.7334L13.286 22.698L13.2339 22.6621L13.182 22.6256L13.1304 22.5886L13.0792 22.551L13.0283 22.5129L12.9778 22.4742L12.9277 22.435L12.8779 22.3953L12.8284 22.355L12.7793 22.3142L12.7306 22.2729L12.6823 22.231L12.6344 22.1886L12.5868 22.1458L12.5397 22.1023L12.4929 22.0584L12.4466 22.014L12.4007 21.9691L12.3552 21.9237L12.3102 21.8778L12.2656 21.8313L12.2214 21.7845L12.1777 21.7371L12.1344 21.6892L12.0916 21.6409L12.0492 21.5921L12.0073 21.5429L11.9659 21.4931L11.925 21.4429L11.8845 21.3923L11.8445 21.3412L11.805 21.2896L11.7661 21.2376L11.7277 21.1853L11.6897 21.1324L11.6522 21.0791L11.6153 21.0254L11.5789 20.9713L11.5431 20.9167L11.5078 20.8618L11.4729 20.8065L11.4387 20.7508L11.405 20.6946L11.3719 20.6381L11.3393 20.5811L11.3073 20.5239L11.2758 20.4662L11.2449 20.4082L11.2146 20.3498L11.1849 20.2911L11.1557 20.232L11.1272 20.1725L11.0992 20.1128L11.0719 20.0527L11.0451 19.9922L11.019 19.9314L10.9934 19.8704L10.9685 19.809L10.9442 19.7473L10.9205 19.6852L10.8975 19.623L10.875 19.5604L10.8532 19.4975L10.832 19.4344L10.8115 19.371L10.7917 19.3073L10.7724 19.2434L10.7538 19.1792L10.7359 19.1147L10.7186 19.0501L10.702 18.9851L10.6861 18.92L10.6708 18.8547L10.6562 18.7891L10.6422 18.7233L10.629 18.6574L10.6163 18.5912L10.6044 18.5248L10.5932 18.4583L10.5827 18.3916L10.5728 18.3247L10.5636 18.2577L10.5552 18.1905L10.5474 18.1232L10.5403 18.0556L10.5339 17.988L10.5282 17.9202L10.5232 17.8524L10.5189 17.7844L10.5153 17.7163L10.5125 17.6482L10.5103 17.5799L10.5089 17.5115L10.5082 17.4431L10.5081 17.3745L10.5088 17.3059L10.5103 17.2373L10.5124 17.1686L10.5153 17.0998L10.5189 17.0311L10.5231 16.9623L10.5281 16.8935L10.5339 16.8246L10.5404 16.7558L10.5475 16.6869L10.5555 16.618L10.5641 16.5492L10.5735 16.4804L10.5836 16.4117L10.5944 16.3429L10.606 16.2742L10.6183 16.2055L10.6313 16.1369L10.6451 16.0683L10.6596 15.9999L10.6748 15.9315L10.6907 15.8632L10.7073 15.795L10.7247 15.7269L10.7429 15.6589L10.7617 15.591L10.7813 15.5232L10.8016 15.4556L10.8226 15.3881L10.8443 15.3207L10.8668 15.2535L10.89 15.1865L10.9139 15.1196L10.9385 15.0529L10.9639 14.9864L10.99 14.9201L11.0168 14.8539L11.0443 14.7879L11.0725 14.7222L11.1014 14.6567L11.1311 14.5914L11.1614 14.5264L11.1925 14.4615L11.2242 14.397L11.2567 14.3326L11.2898 14.2686L11.3237 14.2048L11.3582 14.1413L11.3935 14.0781L11.4295 14.0151L11.4661 13.9525L11.5034 13.8902L11.5414 13.8281L11.5801 13.7664L11.6195 13.705L11.6596 13.6439L11.7002 13.5832L11.7416 13.5228L11.7837 13.4628L11.8264 13.4031L11.8698 13.3438L11.9138 13.2849L11.9585 13.2263L12.0038 13.1682L12.0498 13.1104L12.0965 13.0531L12.1438 12.996L12.1916 12.9396L12.2402 12.8834L12.2893 12.8277L12.3391 12.7724L12.3895 12.7176L12.4406 12.6632L12.4922 12.6093L12.5445 12.5558L12.5973 12.5028L12.6508 12.4503L12.7049 12.3982L12.7595 12.3466L12.8147 12.2956L12.8705 12.245L12.9269 12.1949L12.9838 12.1453L13.0414 12.0963L13.0995 12.0477L13.1582 11.9997L13.2173 11.9522L13.2771 11.9053L13.3373 11.8589L13.3982 11.8131L13.4595 11.7678L13.5213 11.7231L13.5838 11.6789L13.6466 11.6353L13.7101 11.5923L13.774 11.5499L13.8384 11.5081L13.9033 11.4669L13.9688 11.4262L14.0346 11.3862L14.101 11.3468L14.1678 11.308L14.2351 11.2698L14.3028 11.2323L14.371 11.1954L14.4397 11.1591L14.5087 11.1235L14.5782 11.0885L14.6481 11.0542L14.7185 11.0205L14.7892 10.9875L14.8604 10.9551L14.9319 10.9234L15.0038 10.8924L15.0762 10.8621L15.1489 10.8324L15.2219 10.8035L15.2954 10.7752L15.3692 10.7476L15.4433 10.7207L15.5178 10.6946L15.5927 10.6691L15.6678 10.6444L15.7433 10.6204L15.819 10.597L15.8952 10.5745L15.9715 10.5526L16.0482 10.5315L16.1252 10.5111L16.2024 10.4914L16.2799 10.4725L16.3577 10.4543L16.4358 10.4369L16.514 10.4202L16.5926 10.4043L16.6713 10.3892L16.7108 10.3819ZM17.6785 15.9921L16.7804 16.2049L16.7276 11.7931L16.6853 11.8025L16.6216 11.8174L16.5579 11.8329L16.4947 11.849L16.4316 11.8657L16.3689 11.883L16.3061 11.901L16.244 11.9194L16.1818 11.9386L16.1203 11.9581L16.0586 11.9784L15.9974 11.9993L15.9365 12.0207L15.8758 12.0427L15.8156 12.0651L15.7555 12.0883L15.6958 12.112L15.6364 12.1362L15.5771 12.161L15.5186 12.1862L15.46 12.2122L15.4021 12.2385L15.3442 12.2656L15.2868 12.293L15.2296 12.3211L15.1731 12.3496L15.1167 12.3786L15.0608 12.4082L15.0052 12.4383L14.95 12.4689L14.8951 12.5L14.8409 12.5316L14.7866 12.5638L14.733 12.5963L14.6798 12.6294L14.627 12.6629L14.5745 12.697L14.5225 12.7315L14.4709 12.7665L14.4197 12.8019L14.3691 12.8378L14.3186 12.8742L14.2688 12.911L14.2194 12.9483L14.1704 12.986L14.1219 13.024L14.0739 13.0626L14.0262 13.1016L13.979 13.1411L13.9324 13.1808L13.8862 13.2211L13.8404 13.2616L13.7952 13.3027L13.7504 13.3442L13.7061 13.386L13.6623 13.4281L13.6189 13.4707L13.5761 13.5136L13.5338 13.557L13.492 13.6005L13.4506 13.6447L13.4098 13.689L13.3696 13.7338L13.3297 13.7789L13.2905 13.8242L13.2517 13.87L13.2136 13.9159L13.1758 13.9624L13.1387 14.009L13.102 14.0561L13.066 14.1034L13.0304 14.151L12.9954 14.1988L12.9609 14.2469L12.927 14.2955L12.8935 14.3441L12.8607 14.3932L12.8285 14.4424L12.7967 14.4918L12.7655 14.5417L12.735 14.5916L12.7048 14.642L12.6753 14.6923L12.6464 14.743L12.6179 14.7939L12.5902 14.845L12.5629 14.8963L12.5363 14.9479L12.5101 14.9997L12.4846 15.0515L12.4596 15.1037L12.4352 15.156L12.4114 15.2084L12.3881 15.2611L12.3655 15.3139L12.3434 15.3668L12.3219 15.4199L12.301 15.4732L12.2806 15.5266L12.2609 15.58L12.2417 15.6337L12.2231 15.6875L12.2051 15.7413L12.1876 15.7953L12.1708 15.8494L12.1545 15.9036L12.1389 15.9578L12.1238 16.0122L12.1092 16.0666L12.0954 16.1211L12.082 16.1757L12.0693 16.2303L12.0571 16.285L12.0456 16.3398L12.0346 16.3945L12.0242 16.4493L12.0143 16.5042L12.0051 16.559L11.9965 16.6139L11.9884 16.6689L11.9809 16.7237L11.974 16.7787L11.9677 16.8335L11.962 16.8884L11.9568 16.9434L11.9522 16.9982L11.9483 17.0531L11.9448 17.108L11.9419 17.1627L11.9397 17.2174L11.938 17.272L11.9369 17.3267L11.9363 17.3813L11.9363 17.4358L11.9369 17.4902L11.938 17.5445L11.9398 17.5988L11.942 17.653L11.9448 17.7071L11.9483 17.761L11.9522 17.8148L11.9567 17.8686L11.9618 17.9223L11.9674 17.9759L11.9736 18.0291L11.9803 18.0825L11.9875 18.1355L11.9954 18.1886L12.0037 18.2414L12.0126 18.2941L12.022 18.3467L12.032 18.399L12.0425 18.4513L12.0535 18.5032L12.0651 18.5551L12.0772 18.6067L12.0898 18.6583L12.1029 18.7094L12.1166 18.7607L12.1307 18.8114L12.1454 18.8622L12.1606 18.9126L12.1763 18.9629L12.1925 19.0129L12.2091 19.0626L12.2264 19.1123L12.244 19.1616L12.2622 19.2106L12.2808 19.2595L12.3 19.3081L12.3196 19.3564L12.3397 19.4044L12.3602 19.4522L12.3813 19.4998L12.4029 19.5471L12.4248 19.5941L12.4473 19.6407L12.4701 19.6871L12.4936 19.7334L12.5172 19.7791L12.5415 19.8246L12.5662 19.8699L12.5913 19.9148L12.6169 19.9595L12.6429 20.0038L12.6693 20.0477L12.6962 20.0915L12.7233 20.1348L12.751 20.1778L12.7791 20.2205L12.8076 20.2628L12.8365 20.305L12.8657 20.3465L12.8954 20.3879L12.9255 20.4288L12.9559 20.4694L12.9868 20.5097L13.018 20.5496L13.0495 20.5891L13.0815 20.6283L13.1138 20.6671L13.1464 20.7055L13.1795 20.7436L13.2129 20.7813L13.2465 20.8185L13.2807 20.8555L13.315 20.8919L13.3498 20.9281L13.3848 20.9638L13.4201 20.9991L13.4559 21.034L13.4919 21.0686L13.5282 21.1027L13.5648 21.1364L13.6018 21.1697L13.639 21.2026L13.6765 21.2351L13.7143 21.2672L13.7523 21.2988L13.7906 21.3301L13.8293 21.3609L13.8683 21.3913L13.9073 21.4212L13.9467 21.4507L13.9864 21.4798L14.0263 21.5085L14.0664 21.5367L14.1068 21.5645L14.1474 21.5919L14.1882 21.6188L14.2292 21.6452L14.2704 21.6712L14.312 21.6969L14.3536 21.7219L14.3955 21.7466L14.4376 21.7709L14.4798 21.7946L14.5222 21.818L14.565 21.8409L14.6077 21.8633L14.6507 21.8853L14.6938 21.9067L14.7372 21.9278L14.7805 21.9484L14.8242 21.9686L14.8679 21.9883L14.9117 22.0074L14.9558 22.0262L15 22.0445L15.0442 22.0624L15.0886 22.0798L15.1331 22.0966L15.1778 22.1131L15.2224 22.1291L15.2673 22.1446L15.3122 22.1596L15.3571 22.1742L15.4022 22.1883L15.4474 22.202L15.4926 22.2151L15.5379 22.2279L15.5833 22.2401L15.6287 22.2519L15.6742 22.2632L15.7197 22.2741L15.7652 22.2845L15.8108 22.2943L15.8564 22.3039L15.9021 22.3128L15.9478 22.3214L15.9934 22.3294L16.0392 22.3371L16.0849 22.3442L16.1306 22.3509L16.1762 22.3571L16.222 22.3628L16.2676 22.3681L16.3134 22.373L16.359 22.3773L16.4047 22.3813L16.4503 22.3848L16.4958 22.3878L16.5414 22.3903L16.5868 22.3924L16.6322 22.3941L16.6777 22.3953L16.7229 22.396L16.768 22.3963L16.8132 22.3962L16.8583 22.3957L16.9034 22.3946L16.9484 22.3931L16.9931 22.3913L17.0378 22.3889L17.0826 22.3861L17.127 22.3828L17.1715 22.3792L17.2158 22.3751L17.26 22.3706L17.3042 22.3656L17.348 22.3603L17.392 22.3545L17.4356 22.3482L17.4791 22.3416L17.5226 22.3345L17.5659 22.327L17.609 22.3192L17.652 22.3108L17.6949 22.3021L17.7374 22.293L17.7798 22.2835L17.8222 22.2735L17.8643 22.2631L17.9063 22.2525L17.948 22.2413L17.9896 22.2298L18.0311 22.2178L18.0722 22.2056L18.1131 22.1929L18.154 22.1798L18.1946 22.1663L18.2349 22.1526L18.2751 22.1383L18.315 22.1237L18.3548 22.1087L18.3943 22.0934L18.4335 22.0778L18.4725 22.0618L18.5113 22.0453L18.55 22.0285L18.5882 22.0115L18.6263 21.994L18.6641 21.9762L18.7016 21.9581L18.739 21.9396L18.7759 21.9208L18.8128 21.9016L18.8493 21.8821L18.8856 21.8623L18.9215 21.8422L18.9573 21.8218L18.9927 21.801L19.0278 21.7799L19.0626 21.7585L19.0972 21.7367L19.1315 21.7148L19.1656 21.6925L19.1992 21.6699L19.2326 21.647L19.2658 21.6238L19.2985 21.6004L19.331 21.5766L19.3632 21.5525L19.395 21.5282L19.4266 21.5036L19.4579 21.4787L19.4888 21.4537L19.5194 21.4284L19.5496 21.4027L19.5796 21.3768L19.6092 21.3507L19.6385 21.3243L19.6675 21.2977L19.696 21.2709L19.7244 21.2437L19.7524 21.2164L19.78 21.1889L19.8073 21.1611L19.8342 21.1331L19.8608 21.105L19.8871 21.0765L19.9129 21.0479L19.9385 21.019L19.9637 20.99L19.9885 20.9609L20.0131 20.9313L20.0371 20.9018L20.061 20.872L20.0844 20.8421L20.1074 20.812L20.1302 20.7816L20.1524 20.7512L20.1744 20.7205L20.1961 20.6896L20.2173 20.6588L20.2382 20.6276L20.2587 20.5964L20.2787 20.565L20.2985 20.5335L20.3179 20.5018L20.337 20.4699L20.3557 20.438L20.3739 20.406L20.3918 20.3738L20.4093 20.3414L20.4265 20.3091L20.4432 20.2766L20.4597 20.244L20.4757 20.2113L20.4914 20.1784L20.5067 20.1455L20.5216 20.1126L20.536 20.0796L20.5502 20.0463L20.5639 20.0132L20.5774 19.9797L20.5904 19.9466L20.6031 19.9129L20.6152 19.8797L20.6271 19.846L20.6387 19.8123L20.6497 19.7788L20.6605 19.7451L20.6709 19.7115L20.6809 19.6775L20.6904 19.644L20.6998 19.6099L20.7086 19.5764L20.7171 19.5424L20.7252 19.5084L20.7329 19.4746L20.7402 19.4409L20.7472 19.4067L20.7538 19.373L20.7601 19.3389L20.7659 19.3052L20.7715 19.2714L20.7766 19.2374L20.7813 19.2035L20.7857 19.1697L20.7898 19.136L20.7934 19.1024L20.7967 19.0684L20.7997 19.0348L20.8022 19.0011L20.8044 18.9675L20.8063 18.934L20.8078 18.9005L20.8089 18.8672L20.8096 18.8337L20.8101 18.8002L20.8102 18.7671L20.8099 18.7339L20.8092 18.7009L20.8082 18.6679L20.8069 18.6347L20.8052 18.6022L20.8032 18.569L20.8008 18.5366L20.7981 18.504L20.7951 18.4713L20.7916 18.4389L20.788 18.4068L20.7838 18.3743L20.7795 18.3425L20.7747 18.3104L20.7697 18.2788L20.7643 18.2469L20.7586 18.2152L20.7526 18.1838L20.7463 18.1525L20.7396 18.1212L20.7326 18.0902L20.7253 18.0592L20.7177 18.0284L20.7098 17.9979L20.7015 17.9672L20.6931 17.937L20.6842 17.9066L20.6751 17.8767L20.6656 17.8468L20.6559 17.8171L20.6458 17.7875L20.6355 17.758L20.625 17.7289L20.614 17.6999L20.6028 17.6709L20.5914 17.6423L20.5796 17.6136L20.5677 17.5855L20.5553 17.5571L20.5428 17.5293L20.53 17.5016L20.5169 17.4739L20.5036 17.4466L20.4899 17.4194L20.476 17.3923L20.4619 17.3656L20.4475 17.339L20.433 17.3127L20.4181 17.2865L20.4029 17.2605L20.3876 17.2348L20.372 17.2093L20.3561 17.1838L20.3401 17.1589L20.3238 17.134L20.3073 17.1094L20.2905 17.0849L20.2736 17.0607L20.2564 17.0367L20.239 17.013L20.2214 16.9895L20.2036 16.9662L20.1856 16.9432L20.1673 16.9203L20.1489 16.8979L20.1303 16.8755L20.1115 16.8534L20.0925 16.8316L20.0734 16.81L20.054 16.7887L20.0345 16.7676L20.0147 16.7466L19.9949 16.7261L19.9748 16.7058L19.9545 16.6856L19.9342 16.6658L19.9136 16.6463L19.893 16.6269L19.8719 16.6078L19.851 16.589L19.8298 16.5704L19.8086 16.5521L19.7871 16.5341L19.7655 16.5164L19.7437 16.4988L19.7219 16.4816L19.6999 16.4646L19.6778 16.4478L19.6556 16.4314L19.6332 16.4152L19.6107 16.3993L19.5882 16.3837L19.5655 16.3682L19.5428 16.3532L19.5199 16.3383L19.4968 16.3237L19.4738 16.3094L19.4505 16.2954L19.4273 16.2816L19.404 16.2682L19.3805 16.2549L19.3569 16.242L19.3334 16.2293L19.3098 16.2168L19.286 16.2047L19.2623 16.1929L19.2383 16.1812L19.2145 16.1699L19.1905 16.159L19.1665 16.1482L19.1424 16.1376L19.1182 16.1274L19.0942 16.1175L19.0699 16.1078L19.0456 16.0984L19.0213 16.0893L18.997 16.0804L18.9727 16.0718L18.9483 16.0635L18.9239 16.0554L18.8996 16.0476L18.8751 16.04L18.8507 16.0328L18.8264 16.0258L18.8017 16.0191L18.7774 16.0127L18.753 16.0065L18.7285 16.0006L18.704 15.9949L18.6796 15.9895L18.6552 15.9844L18.6308 15.9795L18.6065 15.9749L18.5822 15.9706L18.5577 15.9665L18.5335 15.9627L18.5091 15.9591L18.485 15.9558L18.4607 15.9527L18.4365 15.95L18.4125 15.9474L18.3884 15.9452L18.3644 15.9431L18.3404 15.9413L18.3164 15.9397L18.2925 15.9384L18.2687 15.9374L18.2451 15.9367L18.2213 15.936L18.1977 15.9357L18.1741 15.9357L18.1506 15.9359L18.1272 15.9363L18.1039 15.9369L18.0806 15.9378L18.0575 15.9389L18.0343 15.9403L18.0114 15.9418L17.9885 15.9436L17.9656 15.9457L17.943 15.9479L17.9202 15.9504L17.8978 15.9531L17.8753 15.9561L17.853 15.9592L17.8307 15.9626L17.8087 15.9662L17.7866 15.97L17.7649 15.974L17.743 15.9782L17.7214 15.9826L17.6998 15.9873L17.6785 15.9921Z" fill="#43505C"/>
</svg>
