<svg width="120" height="29" viewBox="0 0 120 29" fill="none" xmlns="http://www.w3.org/2000/svg">
<g clip-path="url(#clip0_105_448)">
<path d="M36.1133 20.2685H44.5999V17.7828H39.1296V8.41992H36.1133V20.2685Z" fill="#1A1414"/>
<path d="M49.6289 18.6102C48.4189 18.6102 47.7884 17.5828 47.7884 16.0416C47.7884 14.5005 48.4189 13.4565 49.6289 13.4565C50.8388 13.4565 51.4864 14.5005 51.4864 16.0416C51.4864 17.5828 50.8388 18.6102 49.6289 18.6102ZM49.6459 20.5325C52.4577 20.5325 54.2982 18.5936 54.2982 16.0416C54.2982 13.4896 52.4577 11.5508 49.6459 11.5508C46.8511 11.5508 44.9766 13.4896 44.9766 16.0416C44.9766 18.5936 46.8511 20.5325 49.6459 20.5325Z" fill="#1A1414"/>
<path d="M59.1646 23.2014C60.4598 23.2014 61.6015 22.9197 62.3684 22.2569C63.0671 21.6437 63.5272 20.7157 63.5272 19.4397V11.7837H60.8688V12.6952H60.8347C60.3234 11.9826 59.5395 11.5352 58.3807 11.5352C56.2164 11.5352 54.7168 13.2917 54.7168 15.7774C54.7168 18.3792 56.5402 19.8043 58.5 19.8043C59.5566 19.8043 60.2212 19.39 60.7324 18.8266H60.8006V19.6717C60.8006 20.6992 60.3064 21.2957 59.1305 21.2957C58.2103 21.2957 57.7502 20.9146 57.5968 20.4672H54.9043C55.1769 22.2403 56.7618 23.2014 59.1646 23.2014ZM59.1476 17.7992C58.108 17.7992 57.4264 16.9706 57.4264 15.6946C57.4264 14.402 58.108 13.5734 59.1476 13.5734C60.3064 13.5734 60.9199 14.5346 60.9199 15.678C60.9199 16.8712 60.3575 17.7992 59.1476 17.7992Z" fill="#1A1414"/>
<path d="M68.9941 18.6102C67.7842 18.6102 67.1536 17.5828 67.1536 16.0416C67.1536 14.5005 67.7842 13.4565 68.9941 13.4565C70.204 13.4565 70.8516 14.5005 70.8516 16.0416C70.8516 17.5828 70.204 18.6102 68.9941 18.6102ZM69.0111 20.5325C71.823 20.5325 73.6635 18.5936 73.6635 16.0416C73.6635 13.4896 71.823 11.5508 69.0111 11.5508C66.2164 11.5508 64.3418 13.4896 64.3418 16.0416C64.3418 18.5936 66.2164 20.5325 69.0111 20.5325Z" fill="#1A1414"/>
<path d="M74.4727 20.2685H77.2504V11.7839H74.4727V20.2685ZM74.4727 10.6074H77.2504V8.41992H74.4727V10.6074Z" fill="#1A1414"/>
<path d="M78.457 23.0689H81.2348V19.39H81.2689C81.8142 20.1026 82.6151 20.5334 83.7399 20.5334C86.0234 20.5334 87.5401 18.7769 87.5401 16.026C87.5401 13.474 86.1257 11.5352 83.808 11.5352C82.6151 11.5352 81.7631 12.0489 81.1666 12.8112H81.1155V11.7837H78.457V23.0689ZM83.0241 18.4454C81.8312 18.4454 81.1496 17.5009 81.1496 16.1254C81.1496 14.75 81.7631 13.706 82.973 13.706C84.1659 13.706 84.7283 14.6672 84.7283 16.1254C84.7283 17.5672 84.0807 18.4454 83.0241 18.4454Z" fill="#1A1414"/>
<path d="M92.0636 20.5334C94.3472 20.5334 96.0343 19.5723 96.0343 17.7163C96.0343 15.5454 94.2279 15.1643 92.6942 14.9157C91.5865 14.7169 90.5981 14.634 90.5981 14.0374C90.5981 13.5072 91.1263 13.2586 91.808 13.2586C92.5749 13.2586 93.1032 13.4906 93.2054 14.2529H95.7616C95.6253 12.5792 94.2961 11.5352 91.825 11.5352C89.763 11.5352 88.0589 12.4632 88.0589 14.2529C88.0589 16.2414 89.6778 16.6392 91.1945 16.8877C92.3533 17.0866 93.4099 17.1694 93.4099 17.9317C93.4099 18.4786 92.8816 18.7769 92.0466 18.7769C91.1263 18.7769 90.5469 18.3626 90.4447 17.5174H87.8203C87.9055 19.39 89.5074 20.5334 92.0636 20.5334Z" fill="#1A1414"/>
<path d="M99.8077 20.5163C101.018 20.5163 101.784 20.0523 102.415 19.2238H102.466V20.2678H105.125V11.7832H102.347V16.5226C102.347 17.5335 101.767 18.2295 100.813 18.2295C99.927 18.2295 99.5009 17.7158 99.5009 16.7878V11.7832H96.7402V17.3512C96.7402 19.2403 97.7968 20.5163 99.8077 20.5163Z" fill="#1A1414"/>
<path d="M106.332 20.2683H109.11V15.5123C109.11 14.5014 109.621 13.7889 110.49 13.7889C111.325 13.7889 111.717 14.3192 111.717 15.2306V20.2683H114.495V15.5123C114.495 14.5014 114.989 13.7889 115.875 13.7889C116.71 13.7889 117.102 14.3192 117.102 15.2306V20.2683H119.88V14.75C119.88 12.8443 118.892 11.5352 116.915 11.5352C115.79 11.5352 114.853 11.9992 114.171 13.0266H114.137C113.694 12.1152 112.825 11.5352 111.683 11.5352C110.422 11.5352 109.587 12.1152 109.042 12.9934H108.99V11.7837H106.332V20.2683Z" fill="#1A1414"/>
<path fill-rule="evenodd" clip-rule="evenodd" d="M14.6881 0.664062C22.6846 0.664062 29.1671 6.96775 29.1671 14.7437C29.1671 22.5198 22.6846 28.8235 14.6881 28.8235C6.69146 28.8235 0.208984 22.5198 0.208984 14.7437C0.208984 6.96775 6.69146 0.664062 14.6881 0.664062ZM28.6113 14.7437C28.6113 7.26624 22.3776 1.20444 14.6881 1.20444C14.0677 1.20444 13.457 1.24388 12.8582 1.32033C13.2451 1.28743 13.6366 1.27064 14.0322 1.27064C21.3801 1.27064 27.3367 7.06296 27.3367 14.2081C27.3367 21.3533 21.3801 27.1456 14.0322 27.1456C7.07583 27.1456 1.36638 21.954 0.777857 15.3378C1.09756 22.5397 7.20303 28.2831 14.6881 28.2831C22.3776 28.2831 28.6113 22.2213 28.6113 14.7437ZM26.7809 14.2081C26.7809 7.36138 21.0732 1.81103 14.0322 1.81103C13.4606 1.81103 12.8976 1.84762 12.3458 1.91853C12.6856 1.89073 13.0294 1.87655 13.3765 1.87655C20.0756 1.87655 25.5063 7.15749 25.5063 13.6718C25.5063 20.1862 20.0756 25.4671 13.3765 25.4671C7.04233 25.4671 1.84214 20.7458 1.29442 14.7247C1.5729 21.3319 7.16931 26.6052 14.0322 26.6052C21.0732 26.6052 26.7809 21.0548 26.7809 14.2081ZM13.3765 2.41693C19.7687 2.41693 24.9506 7.45591 24.9506 13.6718C24.9506 19.8877 19.7687 24.9266 13.3765 24.9266C7.13245 24.9266 2.04319 20.1184 1.81075 14.1018C2.31259 19.5324 7.00557 23.7884 12.7208 23.7884C18.7708 23.7884 23.6753 19.0192 23.6753 13.1361C23.6753 7.25298 18.7708 2.4838 12.7208 2.4838C12.4078 2.4838 12.0979 2.49657 11.7916 2.52158C12.3098 2.45258 12.8388 2.41693 13.3765 2.41693ZM23.1195 13.1361C23.1195 7.55147 18.4639 3.02419 12.7208 3.02419C12.2356 3.02419 11.7581 3.0565 11.2906 3.11904C11.5458 3.09961 11.8039 3.08972 12.0643 3.08972C17.4656 3.08972 21.8442 7.34751 21.8442 12.5998C21.8442 17.8521 17.4656 22.1099 12.0643 22.1099C6.98055 22.1099 2.80277 18.3379 2.32922 13.515C2.5341 18.9241 7.10817 23.2481 12.7208 23.2481C18.4639 23.2481 23.1195 18.7208 23.1195 13.1361ZM12.0643 3.6301C17.1586 3.6301 21.2884 7.646 21.2884 12.5998C21.2884 17.5536 17.1586 21.5695 12.0643 21.5695C7.07035 21.5695 3.00332 17.7103 2.84502 12.8915C3.27257 17.1242 6.94342 20.4313 11.4086 20.4313C16.1611 20.4313 20.0138 16.6849 20.0138 12.0635C20.0138 7.44203 16.1611 3.69562 11.4086 3.69562C11.1907 3.69562 10.9746 3.7035 10.7607 3.71898C11.1866 3.6604 11.6218 3.6301 12.0643 3.6301ZM19.4581 12.0635C19.4581 7.74046 15.8542 4.23601 11.4086 4.23601C11.0028 4.23601 10.604 4.26521 10.2143 4.32156C10.3922 4.30918 10.5718 4.30287 10.7529 4.30287C14.8563 4.30287 18.1828 7.53759 18.1828 11.5278C18.1828 15.518 14.8563 18.7527 10.7529 18.7527C6.90777 18.7527 3.74488 15.9124 3.36193 12.2717C3.47546 16.4985 7.03462 19.891 11.4086 19.891C15.8542 19.891 19.4581 16.3865 19.4581 12.0635ZM10.7529 4.84326C14.5494 4.84326 17.627 7.83602 17.627 11.5278C17.627 15.2196 14.5494 18.2124 10.7529 18.2124C7.0047 18.2124 3.95718 15.2953 3.88022 11.6684C4.22647 14.7092 6.87779 17.0742 10.0972 17.0742C13.5518 17.0742 16.3524 14.3509 16.3524 10.9915C16.3524 7.63212 13.5518 4.90878 10.0972 4.90878C9.96502 4.90878 9.83387 4.91276 9.70379 4.92061C10.0458 4.86968 10.3962 4.84326 10.7529 4.84326ZM15.7967 10.9915C15.7967 7.93054 13.2449 5.44917 10.0972 5.44917C9.78105 5.44917 9.47096 5.47419 9.16883 5.52231C9.25887 5.5177 9.34947 5.51536 9.44071 5.51536C12.2466 5.51536 14.5213 7.72727 14.5213 10.4558C14.5213 13.1844 12.2466 15.3963 9.44071 15.3963C6.84618 15.3963 4.7059 13.5051 4.3981 11.063C4.43751 14.091 6.97397 16.5338 10.0972 16.5338C13.2449 16.5338 15.7967 14.0524 15.7967 10.9915ZM9.44071 6.05574C11.9397 6.05574 13.9656 8.02569 13.9656 10.4558C13.9656 12.886 11.9397 14.8559 9.44071 14.8559C6.94167 14.8559 4.91581 12.886 4.91581 10.4558C4.91581 10.45 4.91583 10.4442 4.91585 10.4384C5.17603 12.2902 6.80914 13.7171 8.78498 13.7171C10.9418 13.7171 12.6902 12.0169 12.6902 9.91953C12.6902 7.82214 10.9418 6.12195 8.78498 6.12195C8.73619 6.12195 8.68763 6.12282 8.63927 6.12454C8.89937 6.07934 9.1672 6.05574 9.44071 6.05574ZM12.1345 9.91953C12.1345 8.12063 10.6349 6.66233 8.78498 6.66233C6.93506 6.66233 5.43541 8.12063 5.43541 9.91953C5.43541 11.7184 6.93506 13.1766 8.78498 13.1766C10.6349 13.1766 12.1345 11.7184 12.1345 9.91953Z" fill="#1A1414"/>
</g>
<defs>
<clipPath id="clip0_105_448">
<rect width="120" height="29" fill="white"/>
</clipPath>
</defs>
</svg>
