<svg width="120" height="31" viewBox="0 0 120 31" fill="none" xmlns="http://www.w3.org/2000/svg">
<path d="M40.7548 22.3241C40.2141 22.3527 39.6792 22.2029 39.2366 21.899C39.0517 21.7654 38.9029 21.5899 38.8031 21.3878C38.7032 21.1856 38.6555 20.9629 38.6639 20.7387V12.5281C38.6595 12.4934 38.6632 12.458 38.675 12.4249C38.6866 12.3918 38.7059 12.3618 38.7313 12.337C38.7568 12.3122 38.7876 12.2934 38.8216 12.2821C38.8556 12.2706 38.8919 12.267 38.9275 12.2713H40.4548C40.6275 12.2713 40.7093 12.3598 40.7093 12.5281V20.101C40.7093 20.4375 40.8639 20.6058 41.1821 20.6058C41.317 20.6112 41.4519 20.5963 41.5821 20.5615C41.7639 20.5615 41.8639 20.6147 41.873 20.7741L42.0093 21.8813C42.0159 21.9136 42.0152 21.9468 42.0075 21.9789C41.9998 22.0108 41.9851 22.0409 41.9643 22.0669C41.9437 22.0929 41.9175 22.1144 41.8877 22.1297C41.8578 22.145 41.8249 22.154 41.7912 22.1558C41.4566 22.2635 41.1071 22.3203 40.7548 22.3241Z" fill="#394149"/>
<path d="M49.3453 21.3766C48.578 21.9944 47.6135 22.3323 46.6181 22.3323C45.6226 22.3323 44.6583 21.9944 43.8908 21.3766C43.2163 20.7132 42.8379 19.8171 42.8379 18.8833C42.8379 17.9495 43.2163 17.0534 43.8908 16.39C44.6597 15.7754 45.6235 15.4396 46.6181 15.4396C47.6126 15.4396 48.5764 15.7754 49.3453 16.39C50.0043 17.0595 50.3723 17.9513 50.3723 18.8789C50.3723 19.8065 50.0043 20.6982 49.3453 21.3677V21.3766ZM45.3272 20.2075C45.6833 20.5218 46.1466 20.6958 46.6272 20.6958C47.1077 20.6958 47.5711 20.5218 47.9272 20.2075C48.2495 19.8464 48.427 19.384 48.427 18.9055C48.427 18.427 48.2495 17.9646 47.9272 17.6035C47.5711 17.2892 47.1077 17.1151 46.6272 17.1151C46.1466 17.1151 45.6833 17.2892 45.3272 17.6035C45.0049 17.9646 44.8273 18.427 44.8273 18.9055C44.8273 19.384 45.0049 19.8464 45.3272 20.2075Z" fill="#394149"/>
<path d="M58.7821 15.6629C58.9548 15.6629 59.0366 15.7515 59.0366 15.9198V22.2704C59.0525 22.6991 58.9701 23.1257 58.7956 23.5194C58.6211 23.9132 58.3587 24.2641 58.0275 24.5467C57.2924 25.1574 56.3472 25.4738 55.3821 25.4324C54.5104 25.4622 53.6503 25.2303 52.9184 24.7681C52.6059 24.5682 52.3389 24.3077 52.1341 24.003C51.9292 23.6982 51.7908 23.3557 51.7275 22.9967C51.7275 22.8195 51.7275 22.7398 51.973 22.7398H53.5002C53.5651 22.7419 53.628 22.7624 53.6812 22.7985C53.7344 22.8347 53.7758 22.885 53.8002 22.9435C53.8993 23.2125 54.0968 23.4365 54.3548 23.5724C54.6692 23.7305 55.0192 23.8097 55.373 23.8027C55.5864 23.8141 55.8001 23.7839 56.0014 23.7139C56.2028 23.644 56.3878 23.5356 56.5457 23.3952C56.69 23.2484 56.8022 23.0745 56.8756 22.8843C56.9491 22.694 56.9822 22.4912 56.973 22.2881V21.7301C56.4262 22.1219 55.7606 22.3246 55.0821 22.3058C54.6072 22.3226 54.1337 22.2458 53.69 22.0799C53.2463 21.914 52.8417 21.6625 52.5002 21.3404C51.8449 20.6798 51.4785 19.7969 51.4785 18.8781C51.4785 17.9593 51.8449 17.0765 52.5002 16.4158C52.8433 16.0966 53.2485 15.8475 53.6919 15.6832C54.1353 15.5189 54.608 15.4428 55.0821 15.4592C55.7802 15.4413 56.4637 15.657 57.0184 16.0704V15.9287C57.0142 15.8947 57.0179 15.8603 57.0291 15.8279C57.0402 15.7955 57.0587 15.766 57.0831 15.7413C57.1074 15.7167 57.1372 15.6978 57.17 15.6857C57.2029 15.6737 57.2381 15.669 57.273 15.6718L58.7821 15.6629ZM55.2548 20.7292C55.489 20.7363 55.722 20.6932 55.9372 20.6028C56.1523 20.5126 56.3446 20.3773 56.5002 20.2067C56.8025 19.8264 56.9665 19.359 56.9665 18.8781C56.9665 18.3971 56.8025 17.9298 56.5002 17.5495C56.3452 17.3812 56.1541 17.2479 55.9405 17.1592C55.7269 17.0704 55.496 17.0284 55.2639 17.0358C55.027 17.0285 54.7913 17.0715 54.5732 17.1618C54.355 17.252 54.1595 17.3873 54.0002 17.5584C53.6654 17.9221 53.4893 18.3987 53.5093 18.8869C53.493 19.3704 53.6652 19.8419 53.9912 20.2067C54.1508 20.3772 54.3463 20.5123 54.5644 20.6025C54.7825 20.6927 55.018 20.7359 55.2548 20.7292Z" fill="#394149"/>
<path d="M66.8807 21.3759C66.1118 21.9905 65.148 22.3263 64.1534 22.3263C63.1589 22.3263 62.1951 21.9905 61.4262 21.3759C60.7666 20.7049 60.3984 19.8117 60.3984 18.8826C60.3984 17.9536 60.7666 17.0603 61.4262 16.3893C62.1958 15.7763 63.1593 15.4414 64.1534 15.4414C65.1475 15.4414 66.1111 15.7763 66.8807 16.3893C67.5397 17.0588 67.9076 17.9505 67.9076 18.8782C67.9076 19.8058 67.5397 20.6975 66.8807 21.367V21.3759ZM62.8534 20.2067C63.0277 20.3683 63.2332 20.4945 63.4579 20.5781C63.6826 20.6617 63.9221 20.7011 64.1625 20.6939C64.4014 20.6999 64.6393 20.66 64.8623 20.5764C65.0854 20.4928 65.2893 20.3672 65.4625 20.2067C65.7796 19.8432 65.9537 19.3818 65.9537 18.9047C65.9537 18.4277 65.7796 17.9662 65.4625 17.6027C65.2893 17.4423 65.0854 17.3166 64.8623 17.2331C64.6393 17.1495 64.4014 17.1096 64.1625 17.1156C63.9221 17.1084 63.6826 17.1477 63.4579 17.2313C63.2332 17.315 63.0277 17.4413 62.8534 17.6027C62.5364 17.9662 62.3623 18.4277 62.3623 18.9047C62.3623 19.3818 62.5364 19.8432 62.8534 20.2067Z" fill="#394149"/>
<path d="M71.1907 14.1573C70.9505 14.3623 70.6419 14.4752 70.3226 14.4752C70.0032 14.4752 69.6947 14.3623 69.4544 14.1573C69.3455 14.0571 69.2586 13.9363 69.1993 13.8023C69.14 13.6683 69.1094 13.5238 69.1094 13.3779C69.1094 13.2319 69.14 13.0875 69.1993 12.9534C69.2586 12.8194 69.3455 12.6986 69.4544 12.5984C69.6972 12.3986 70.0047 12.2891 70.3226 12.2891C70.6404 12.2891 70.9479 12.3986 71.1907 12.5984C71.2997 12.6986 71.3866 12.8194 71.4458 12.9534C71.5052 13.0875 71.5357 13.2319 71.5357 13.3779C71.5357 13.5238 71.5052 13.6683 71.4458 13.8023C71.3866 13.9363 71.2997 14.0571 71.1907 14.1573ZM71.3816 22.3236C70.8413 22.3494 70.3074 22.1999 69.8635 21.8984C69.6814 21.7629 69.5351 21.5868 69.4371 21.385C69.339 21.1831 69.2919 20.9614 69.2998 20.7382V15.9199C69.2955 15.8852 69.2992 15.8498 69.3109 15.8167C69.3226 15.7836 69.3418 15.7535 69.3673 15.7287C69.3927 15.7039 69.4236 15.6852 69.4576 15.6738C69.4916 15.6624 69.5278 15.6588 69.5635 15.663H71.0907C71.2635 15.663 71.3453 15.7516 71.3453 15.9199V20.1004C71.3453 20.437 71.4998 20.6053 71.8089 20.6053C71.9468 20.6102 72.0846 20.5952 72.218 20.561C72.3998 20.561 72.4998 20.6142 72.5089 20.7736L72.6453 21.8807C72.6518 21.9131 72.6512 21.9463 72.6435 21.9783C72.6357 22.0103 72.621 22.0404 72.6003 22.0664C72.5796 22.0924 72.5535 22.1138 72.5236 22.1292C72.4937 22.1445 72.4608 22.1534 72.4271 22.1553C72.0896 22.2636 71.737 22.3204 71.3816 22.3236Z" fill="#394149"/>
<path d="M78.2642 15.4517C78.7413 15.4334 79.2172 15.5086 79.6638 15.6729C80.1105 15.8372 80.5187 16.0873 80.8642 16.4083C81.5071 17.0805 81.8646 17.9651 81.8646 18.8838C81.8646 19.8026 81.5071 20.6872 80.8642 21.3594C80.5204 21.6833 80.1126 21.9358 79.6657 22.1017C79.2188 22.2677 78.7421 22.3436 78.2642 22.3248C77.5835 22.3396 76.9163 22.1375 76.3642 21.7491V24.9466C76.3642 25.1148 76.2733 25.1946 76.1006 25.1946H74.5733C74.5385 25.2009 74.5026 25.1989 74.4686 25.1887C74.4348 25.1784 74.404 25.1604 74.3789 25.1359C74.3539 25.1115 74.3353 25.0815 74.3248 25.0485C74.3143 25.0156 74.3123 24.9806 74.3187 24.9466V17.6837C74.3295 17.6127 74.3229 17.5402 74.2998 17.472C74.2767 17.4039 74.2374 17.3419 74.1853 17.2911C74.1332 17.2404 74.0697 17.2022 73.9997 17.1796C73.9297 17.1571 73.8553 17.1508 73.7824 17.1611H73.4824C73.2824 17.1611 73.1824 17.0903 73.1824 16.9486V15.9034C73.1776 15.8388 73.1958 15.7745 73.2339 15.7213C73.2719 15.6681 73.3276 15.6292 73.3915 15.6111C73.7059 15.4998 74.0387 15.4458 74.3733 15.4517C74.7069 15.4229 75.0417 15.4919 75.3349 15.6497C75.628 15.8075 75.8662 16.047 76.0187 16.3374C76.3116 16.0488 76.6617 15.8215 77.0478 15.6691C77.4339 15.5169 77.8478 15.4428 78.2642 15.4517ZM76.846 20.208C77.0081 20.3731 77.2028 20.5044 77.4185 20.5942C77.6341 20.6839 77.8661 20.7301 78.1006 20.7301C78.335 20.7301 78.5671 20.6839 78.7826 20.5942C78.9983 20.5044 79.193 20.3731 79.3551 20.208C79.6966 19.837 79.8759 19.3508 79.8551 18.8528C79.8789 18.3545 79.6991 17.8672 79.3551 17.4977C79.193 17.3327 78.9983 17.2013 78.7826 17.1116C78.5671 17.0218 78.335 16.9756 78.1006 16.9756C77.8661 16.9756 77.6341 17.0218 77.4185 17.1116C77.2028 17.2013 77.0081 17.3327 76.846 17.4977C76.5153 17.8738 76.3431 18.358 76.3642 18.8528C76.3457 19.3473 76.5176 19.8307 76.846 20.208Z" fill="#394149"/>
<path d="M86.1546 22.3233C85.3385 22.356 84.5293 22.1658 83.8182 21.7742C83.5329 21.6068 83.29 21.3789 83.1074 21.1075C82.9249 20.8361 82.8074 20.5281 82.7637 20.2065C82.7637 20.0293 82.8273 19.9407 83.0273 19.9407H84.3637C84.4272 19.9432 84.4889 19.9626 84.5419 19.9971C84.5948 20.0314 84.6369 20.0794 84.6637 20.1356C84.8546 20.6139 85.3546 20.853 86.1546 20.853C86.4337 20.8655 86.7115 20.8107 86.9637 20.6936C87.0508 20.6553 87.1254 20.5947 87.1799 20.5183C87.2343 20.4419 87.2664 20.3524 87.2728 20.2596C87.2728 20.0293 87.1273 19.8699 86.8364 19.7636C86.4914 19.6517 86.1347 19.5774 85.7728 19.5422C85.3441 19.4949 84.919 19.4209 84.5 19.3207C84.0926 19.2309 83.7221 19.0242 83.4364 18.7273C83.2681 18.5255 83.1443 18.2922 83.0725 18.0418C83.0008 17.7914 82.9827 17.5292 83.0193 17.2717C83.056 17.0142 83.1467 16.7667 83.2857 16.5448C83.4247 16.3229 83.609 16.1312 83.8273 15.9816C84.4826 15.575 85.2514 15.3768 86.0273 15.4147C86.7786 15.39 87.5219 15.5711 88.1728 15.9373C88.4351 16.0821 88.6609 16.282 88.8339 16.5226C89.0069 16.7631 89.1227 17.0383 89.1728 17.3279C89.1728 17.505 89.0909 17.5936 88.9273 17.5936H87.5818C87.5252 17.5969 87.4689 17.5834 87.4202 17.555C87.3716 17.5265 87.3329 17.4844 87.3091 17.4342C87.2192 17.2244 87.0499 17.0563 86.8364 16.9647C86.5955 16.842 86.3264 16.781 86.0546 16.7876C85.7881 16.7735 85.5223 16.8253 85.2819 16.9382C85.1971 16.9701 85.1242 17.0259 85.0723 17.0985C85.0205 17.1711 84.9921 17.2572 84.9909 17.3456C84.9968 17.4668 85.0423 17.5829 85.1208 17.6769C85.1994 17.771 85.3068 17.838 85.4273 17.8682C85.7764 17.9964 86.1394 18.0855 86.5091 18.1339C86.9343 18.1884 87.3561 18.2653 87.7728 18.3642C88.1802 18.4541 88.5507 18.6607 88.8364 18.9576C88.9893 19.1212 89.1073 19.3126 89.1838 19.5209C89.2602 19.7291 89.2936 19.9501 89.2819 20.171C89.2897 20.4772 89.2159 20.7801 89.0678 21.0503C88.9196 21.3203 88.702 21.5484 88.4364 21.7122C87.7572 22.137 86.9613 22.3501 86.1546 22.3233Z" fill="#394149"/>
<path d="M98.8907 21.8818C98.8962 21.9132 98.8944 21.9454 98.8871 21.9763C98.8789 22.0073 98.8653 22.0363 98.8453 22.0619C98.8262 22.0875 98.8016 22.1091 98.7735 22.1253C98.7453 22.1415 98.7144 22.152 98.6816 22.1563C98.3498 22.2619 98.0035 22.3187 97.6544 22.3246C97.3089 22.3595 96.9598 22.3069 96.6416 22.1719C96.3225 22.037 96.0453 21.8241 95.8362 21.5541C95.1944 22.092 94.3635 22.3679 93.518 22.3246C93.1253 22.3423 92.7335 22.2796 92.3671 22.1408C92.0007 22.0021 91.668 21.7901 91.3907 21.5186C91.1153 21.2342 90.9018 20.8985 90.7627 20.5318C90.6237 20.165 90.5622 19.7747 90.5816 19.3841V15.9209C90.5816 15.7526 90.6635 15.6641 90.8362 15.6641H92.3635C92.5362 15.6641 92.618 15.7526 92.618 15.9209V19.1183C92.6016 19.5167 92.7407 19.9063 93.0089 20.2078C93.1425 20.3459 93.3053 20.4545 93.4853 20.5264C93.6653 20.5982 93.8598 20.6315 94.0544 20.6241C94.2535 20.6326 94.4525 20.6025 94.6398 20.5356C94.8271 20.4687 94.9989 20.3663 95.1453 20.2343C95.2835 20.0953 95.3916 19.93 95.4616 19.7487C95.5325 19.5674 95.5635 19.374 95.5544 19.1803V15.9209C95.5544 15.7526 95.6362 15.6641 95.8089 15.6641H97.3544C97.5271 15.6641 97.6089 15.7526 97.6089 15.9209V20.0926C97.6089 20.4381 97.7635 20.6063 98.0635 20.6063C98.2044 20.6117 98.3453 20.5968 98.4816 20.5621C98.5162 20.5527 98.5525 20.551 98.5871 20.5572C98.6225 20.5633 98.6553 20.5771 98.6844 20.5976C98.7135 20.618 98.7371 20.6446 98.7544 20.6753C98.7707 20.7059 98.7798 20.7399 98.7816 20.7746L98.8907 21.8818Z" fill="#394149"/>
<path d="M113.337 21.8816C113.345 21.9133 113.346 21.9465 113.34 21.9785C113.332 22.0105 113.319 22.0408 113.299 22.067C113.279 22.0932 113.253 22.1148 113.223 22.1303C113.194 22.1458 113.162 22.1546 113.128 22.1562C112.79 22.2633 112.438 22.3201 112.082 22.3245C111.542 22.3517 111.008 22.2021 110.564 21.8994C110.372 21.7697 110.217 21.596 110.111 21.3936C110.004 21.1912 109.951 20.9663 109.955 20.7391V18.6576C109.974 18.2605 109.838 17.871 109.573 17.5682C109.446 17.4298 109.288 17.3207 109.112 17.2486C108.936 17.1767 108.746 17.1437 108.555 17.1519C108.383 17.1456 108.212 17.1774 108.054 17.2449C107.897 17.3124 107.758 17.4139 107.646 17.5416C107.406 17.8384 107.283 18.2094 107.301 18.5868V21.8551C107.301 22.0234 107.219 22.1119 107.046 22.1119H105.51C105.474 22.1163 105.438 22.1125 105.404 22.1012C105.37 22.0898 105.339 22.071 105.313 22.0462C105.288 22.0215 105.269 21.9914 105.257 21.9583C105.245 21.9251 105.242 21.8899 105.246 21.8551V18.6576C105.266 18.2648 105.14 17.8781 104.892 17.5682C104.781 17.438 104.642 17.3332 104.484 17.2613C104.328 17.1894 104.156 17.152 103.982 17.1519C103.797 17.1447 103.612 17.1756 103.44 17.2428C103.267 17.3099 103.112 17.4118 102.982 17.5416C102.722 17.829 102.589 18.2043 102.61 18.5868V21.8551C102.614 21.8899 102.611 21.9251 102.599 21.9583C102.587 21.9914 102.568 22.0215 102.542 22.0462C102.517 22.071 102.486 22.0898 102.452 22.1012C102.418 22.1125 102.382 22.1163 102.346 22.1119H100.864C100.692 22.1119 100.61 22.0234 100.61 21.8551V17.6834C100.621 17.6123 100.614 17.5399 100.591 17.4717C100.568 17.4036 100.529 17.3416 100.476 17.2908C100.424 17.2401 100.361 17.2019 100.291 17.1793C100.221 17.1567 100.146 17.1504 100.073 17.1608H99.7733C99.5733 17.1608 99.4733 17.0899 99.4733 16.9482V15.9031C99.4688 15.8384 99.487 15.7741 99.5252 15.721C99.5633 15.6677 99.6188 15.6289 99.6824 15.6108C99.997 15.4994 100.33 15.4454 100.664 15.4514C100.985 15.4247 101.308 15.487 101.594 15.6312C101.881 15.7754 102.119 15.9955 102.282 16.2662C102.589 15.983 102.952 15.7645 103.35 15.6242C103.747 15.484 104.17 15.4252 104.592 15.4514C105.002 15.4319 105.41 15.5067 105.784 15.6699C106.159 15.833 106.488 16.0798 106.746 16.3902C107.047 16.0716 107.417 15.8222 107.829 15.6598C108.241 15.4974 108.684 15.4263 109.128 15.4514C109.524 15.4333 109.921 15.4956 110.292 15.6343C110.662 15.773 111 15.9852 111.282 16.2574C111.559 16.5412 111.772 16.8768 111.912 17.2438C112.051 17.6106 112.112 18.0013 112.092 18.3919V20.1014C112.092 20.4379 112.246 20.6062 112.537 20.6062C112.678 20.6126 112.819 20.5977 112.955 20.5619C113.143 20.5619 113.243 20.6328 113.255 20.7745L113.337 21.8816Z" fill="#394149"/>
<path d="M6.73601 14.5123C7.40671 11.8859 8.96004 9.55357 11.1486 7.88678C13.3373 6.21995 16.0354 5.31445 18.8133 5.31445C21.5912 5.31445 24.2893 6.21995 26.4779 7.88678C28.6666 9.55357 30.2198 11.8859 30.8906 14.5123H29.7996C27.9594 14.4859 26.1568 15.0218 24.6451 16.0446C24.5578 16.1062 24.4667 16.1624 24.3724 16.2129H24.2451C24.1507 16.1624 24.0596 16.1062 23.9724 16.0446C22.4473 15.0454 20.6511 14.5118 18.8133 14.5118C16.9755 14.5118 15.1793 15.0454 13.6542 16.0446C13.5669 16.1062 13.4758 16.1624 13.3815 16.2129H13.2542C13.1598 16.1624 13.0687 16.1062 12.9815 16.0446C11.4697 15.0218 9.66719 14.4859 7.82692 14.5123H6.73601ZM27.836 20.0658C28.396 19.6409 29.0901 19.4186 29.7996 19.4369H31.2633V16.5938H29.7996C28.5498 16.5791 27.3286 16.9581 26.3178 17.6743C25.749 18.0829 25.0609 18.3034 24.3542 18.3034C23.6475 18.3034 22.9594 18.0829 22.3906 17.6743C21.3541 16.9714 20.1216 16.5946 18.8587 16.5946C17.5959 16.5946 16.3634 16.9714 15.3269 17.6743C14.7581 18.0829 14.07 18.3034 13.3633 18.3034C12.6566 18.3034 11.9685 18.0829 11.3996 17.6743C10.3764 16.9488 9.13764 16.5694 7.87237 16.5938H6.36328V19.4369H7.82692C8.53647 19.4186 9.23055 19.6409 9.79055 20.0658C10.8251 20.7692 12.0563 21.1463 13.3178 21.1463C14.5794 21.1463 15.8106 20.7692 16.8451 20.0658C17.4058 19.6422 18.0994 19.4201 18.8087 19.4369C19.5186 19.4171 20.2131 19.6396 20.7724 20.0658C21.8088 20.7687 23.0414 21.1455 24.3042 21.1455C25.567 21.1455 26.7996 20.7687 27.836 20.0658ZM27.836 25.1498C28.396 24.7249 29.0901 24.5026 29.7996 24.5209H31.2633V21.6778H29.7996C28.5498 21.6631 27.3286 22.0421 26.3178 22.7583C25.749 23.1669 25.0609 23.3874 24.3542 23.3874C23.6475 23.3874 22.9594 23.1669 22.3906 22.7583C21.3541 22.0554 20.1216 21.6786 18.8587 21.6786C17.5959 21.6786 16.3634 22.0554 15.3269 22.7583C14.7581 23.1669 14.07 23.3874 13.3633 23.3874C12.6566 23.3874 11.9685 23.1669 11.3996 22.7583C10.3764 22.0329 9.13764 21.6534 7.87237 21.6778H6.36328V24.5209H7.82692C8.53647 24.5026 9.23055 24.7249 9.79055 25.1498C10.8251 25.8532 12.0563 26.2303 13.3178 26.2303C14.5794 26.2303 15.8106 25.8532 16.8451 25.1498C17.4058 24.7262 18.0994 24.5041 18.8087 24.5209C19.5186 24.5011 20.2131 24.7236 20.7724 25.1498C21.8088 25.8527 23.0414 26.2295 24.3042 26.2295C25.567 26.2295 26.7996 25.8527 27.836 25.1498Z" fill="#394149"/>
</svg>
