<svg width="125" height="32" viewBox="0 0 125 32" fill="none" xmlns="http://www.w3.org/2000/svg">
<path d="M45.3977 25V23.0312L54.3466 10.196H45.3466V7.54545H58.267V9.5142L49.3267 22.3494H58.3182V25H45.3977ZM62.9191 29.9091C62.4986 29.9091 62.1094 29.875 61.7515 29.8068C61.3992 29.7443 61.118 29.6705 60.9077 29.5852L61.6236 27.1818C62.0725 27.3125 62.4731 27.375 62.8253 27.3693C63.1776 27.3636 63.4873 27.2528 63.7543 27.0369C64.027 26.8267 64.2572 26.4744 64.4447 25.9801L64.7089 25.2727L59.9617 11.9091H63.2344L66.2515 21.7955H66.3878L69.4134 11.9091H72.6947L67.4532 26.5852C67.2089 27.2784 66.885 27.8722 66.4816 28.3665C66.0782 28.8665 65.5839 29.2472 64.9986 29.5085C64.4191 29.7756 63.7259 29.9091 62.9191 29.9091ZM81.2203 11.9091V14.2955H73.4816V11.9091H81.2203ZM75.4163 25V10.6733C75.4163 9.79261 75.5981 9.05966 75.9618 8.47443C76.3311 7.8892 76.8254 7.4517 77.4447 7.16193C78.064 6.87216 78.7515 6.72727 79.5072 6.72727C80.0413 6.72727 80.5157 6.76989 80.9305 6.85511C81.3453 6.94034 81.6521 7.01705 81.851 7.08523L81.2373 9.47159C81.1066 9.43182 80.9419 9.39204 80.743 9.35227C80.5441 9.30682 80.3226 9.28409 80.0782 9.28409C79.5044 9.28409 79.0981 9.4233 78.8595 9.7017C78.6265 9.97443 78.5101 10.3665 78.5101 10.8778V25H75.4163ZM88.6145 25.2557C87.3361 25.2557 86.2282 24.9744 85.2907 24.4119C84.3532 23.8494 83.6259 23.0625 83.1088 22.0511C82.5975 21.0398 82.3418 19.858 82.3418 18.5057C82.3418 17.1534 82.5975 15.9687 83.1088 14.9517C83.6259 13.9347 84.3532 13.1449 85.2907 12.5824C86.2282 12.0199 87.3361 11.7386 88.6145 11.7386C89.8929 11.7386 91.0009 12.0199 91.9384 12.5824C92.8759 13.1449 93.6003 13.9347 94.1117 14.9517C94.6287 15.9687 94.8872 17.1534 94.8872 18.5057C94.8872 19.858 94.6287 21.0398 94.1117 22.0511C93.6003 23.0625 92.8759 23.8494 91.9384 24.4119C91.0009 24.9744 89.8929 25.2557 88.6145 25.2557ZM88.6316 22.7841C89.3247 22.7841 89.9043 22.5937 90.3702 22.2131C90.8361 21.8267 91.1827 21.3097 91.41 20.6619C91.6429 20.0142 91.7594 19.2926 91.7594 18.4972C91.7594 17.696 91.6429 16.9716 91.41 16.3239C91.1827 15.6705 90.8361 15.1506 90.3702 14.7642C89.9043 14.3778 89.3247 14.1847 88.6316 14.1847C87.9213 14.1847 87.3304 14.3778 86.8588 14.7642C86.3929 15.1506 86.0435 15.6705 85.8105 16.3239C85.5833 16.9716 85.4696 17.696 85.4696 18.4972C85.4696 19.2926 85.5833 20.0142 85.8105 20.6619C86.0435 21.3097 86.3929 21.8267 86.8588 22.2131C87.3304 22.5937 87.9213 22.7841 88.6316 22.7841ZM97.2659 25V11.9091H100.257V14.0909H100.394C100.632 13.3352 101.041 12.7528 101.621 12.3438C102.206 11.929 102.874 11.7216 103.624 11.7216C103.794 11.7216 103.985 11.7301 104.195 11.7472C104.411 11.7585 104.59 11.7784 104.732 11.8068V14.6449C104.601 14.5994 104.394 14.5597 104.11 14.5256C103.831 14.4858 103.561 14.4659 103.3 14.4659C102.737 14.4659 102.232 14.5881 101.783 14.8324C101.34 15.071 100.99 15.4034 100.735 15.8295C100.479 16.2557 100.351 16.7472 100.351 17.304V25H97.2659ZM106.541 25V11.9091H109.627V25H106.541ZM108.093 10.0511C107.604 10.0511 107.184 9.8892 106.831 9.56534C106.479 9.23579 106.303 8.84091 106.303 8.38068C106.303 7.91477 106.479 7.51989 106.831 7.19602C107.184 6.86648 107.604 6.7017 108.093 6.7017C108.587 6.7017 109.007 6.86648 109.354 7.19602C109.706 7.51989 109.882 7.91477 109.882 8.38068C109.882 8.84091 109.706 9.23579 109.354 9.56534C109.007 9.8892 108.587 10.0511 108.093 10.0511ZM116.326 25.2642C115.497 25.2642 114.75 25.1165 114.085 24.821C113.426 24.5199 112.903 24.0767 112.517 23.4915C112.136 22.9062 111.946 22.1847 111.946 21.3267C111.946 20.5881 112.082 19.9773 112.355 19.4943C112.627 19.0114 113 18.625 113.471 18.3352C113.943 18.0455 114.474 17.8267 115.065 17.679C115.662 17.5256 116.278 17.4148 116.914 17.3466C117.681 17.267 118.304 17.196 118.781 17.1335C119.258 17.0653 119.605 16.9631 119.821 16.8267C120.042 16.6847 120.153 16.4659 120.153 16.1705V16.1193C120.153 15.4773 119.963 14.9801 119.582 14.6278C119.201 14.2756 118.653 14.0994 117.937 14.0994C117.181 14.0994 116.582 14.2642 116.139 14.5938C115.701 14.9233 115.406 15.3125 115.252 15.7614L112.372 15.3523C112.599 14.5568 112.974 13.892 113.497 13.358C114.02 12.8182 114.659 12.4148 115.414 12.1477C116.17 11.875 117.005 11.7386 117.92 11.7386C118.551 11.7386 119.179 11.8125 119.804 11.9602C120.429 12.108 121 12.3523 121.517 12.6932C122.034 13.0284 122.448 13.4858 122.761 14.0653C123.079 14.6449 123.238 15.3693 123.238 16.2386V25H120.272V23.2017H120.17C119.983 23.5653 119.718 23.9062 119.377 24.2244C119.042 24.5369 118.619 24.7898 118.108 24.983C117.602 25.1705 117.008 25.2642 116.326 25.2642ZM117.127 22.9972C117.747 22.9972 118.284 22.875 118.738 22.6307C119.193 22.3807 119.542 22.0511 119.787 21.642C120.037 21.233 120.162 20.7869 120.162 20.304V18.7614C120.065 18.8409 119.9 18.9148 119.667 18.983C119.44 19.0511 119.184 19.1108 118.9 19.1619C118.616 19.2131 118.335 19.2585 118.056 19.2983C117.778 19.3381 117.537 19.3722 117.332 19.4006C116.872 19.4631 116.46 19.5653 116.096 19.7074C115.733 19.8494 115.446 20.0483 115.235 20.304C115.025 20.554 114.92 20.8778 114.92 21.2756C114.92 21.8438 115.127 22.2727 115.542 22.5625C115.957 22.8523 116.485 22.9972 117.127 22.9972Z" fill="#0C0C0C"/>
<path fill-rule="evenodd" clip-rule="evenodd" d="M16 32C24.8366 32 32 24.8366 32 16C32 7.16345 24.8366 0 16 0C7.16343 0 0 7.16345 0 16C0 24.8366 7.16343 32 16 32ZM20.9914 7.45348C21.2344 6.59044 20.3969 6.08011 19.632 6.62504L8.95449 14.2317C8.12497 14.8226 8.25545 16 9.15049 16H11.9622V15.9782H17.442L12.977 17.5537L11.0086 24.5466C10.7656 25.4096 11.603 25.9199 12.368 25.375L23.0455 17.7684C23.875 17.1774 23.7445 16 22.8495 16H18.5857L20.9914 7.45348Z" fill="#FF6500"/>
</svg>
