<svg width="17" height="14" viewBox="0 0 17 14" fill="none" xmlns="http://www.w3.org/2000/svg">
<path d="M9.75195 1.125C10.0336 0.875 10.2742 0.75 10.5515 0.75C11.0751 0.75 11.4677 1.19557 12.2529 2.08671L14.184 4.27836C15.2282 5.46349 15.7503 6.05606 15.7503 6.75C15.7503 7.44394 15.2282 8.03651 14.184 9.22164L12.2529 11.4133C11.4677 12.3044 11.0751 12.75 10.5515 12.75C10.2742 12.75 10.0336 12.625 9.75195 12.375" stroke="#0C0C0C" stroke-width="1.5" stroke-linecap="round"/>
<path d="M4.28186 2.08671C5.07478 1.19557 5.47124 0.75 6 0.75C6.52876 0.75 6.92522 1.19557 7.71814 2.08671L9.66823 4.27836C10.7227 5.46349 11.25 6.05606 11.25 6.75C11.25 7.44394 10.7227 8.03651 9.66824 9.22164L7.71814 11.4133C6.92522 12.3044 6.52876 12.75 6 12.75C5.47124 12.75 5.07478 12.3044 4.28186 11.4133L2.33177 9.22164C1.27726 8.03651 0.75 7.44394 0.75 6.75C0.75 6.05606 1.27725 5.46349 2.33177 4.27836L4.28186 2.08671Z" stroke="#0C0C0C" stroke-width="1.5"/>
</svg>
