<svg width="120" height="31" viewBox="0 0 120 31" fill="none" xmlns="http://www.w3.org/2000/svg">
<path d="M27.7463 10.8496C28.0735 10.8496 28.1826 10.9648 28.1826 11.2748V18.2896H31.8826C32.2008 18.2896 32.319 18.4048 32.319 18.7148V19.3348C32.319 19.6448 32.2008 19.7599 31.8826 19.7599H27.0099C26.6917 19.7599 26.5645 19.6448 26.5645 19.3348V11.2748C26.5645 10.9648 26.6917 10.8496 27.0099 10.8496H27.7463Z" fill="#394149"/>
<path d="M35.5469 13.9412C35.5469 11.8952 36.8741 10.6641 39.1832 10.6641C41.4923 10.6641 42.8196 11.8952 42.8196 13.9412V16.6692C42.8196 18.7152 41.4832 19.9463 39.1832 19.9463C36.8832 19.9463 35.5469 18.7152 35.5469 16.6692V13.9412ZM41.2923 13.9412C41.2923 12.7898 40.556 12.1698 39.2287 12.1698C37.9014 12.1698 37.1741 12.7986 37.1741 13.9412V16.6869C37.1741 17.8472 37.9014 18.4583 39.2287 18.4583C40.556 18.4583 41.2923 17.8206 41.2923 16.6869V13.9412Z" fill="#394149"/>
<path d="M53.6448 14.8803C53.9994 14.8803 54.0812 14.9955 54.0812 15.3055V16.9883C54.0908 17.3847 54.0093 17.7782 53.8425 18.1399C53.6757 18.5016 53.4281 18.8223 53.1175 19.0786C52.3464 19.6769 51.374 19.9737 50.3903 19.9112C48.0357 19.9112 46.7539 18.68 46.7539 16.6341V13.8883C46.7539 11.8689 48.0812 10.6289 50.3903 10.6289C52.2085 10.6289 53.3903 11.3286 53.8903 12.728C53.9183 12.7807 53.9333 12.8389 53.9341 12.898C53.9349 12.9573 53.9215 13.0159 53.8951 13.0691C53.8686 13.1225 53.8297 13.169 53.7815 13.2052C53.7334 13.2412 53.6772 13.2659 53.6175 13.2772L52.9085 13.5163C52.5994 13.6226 52.4721 13.5606 52.363 13.2506C52.2124 12.8723 51.9366 12.5537 51.5794 12.3452C51.2221 12.1367 50.8037 12.05 50.3903 12.0992C49.0539 12.0992 48.3266 12.728 48.3266 13.8706V16.6872C48.3266 17.8475 49.063 18.4586 50.3903 18.4586C51.7175 18.4586 52.5357 17.8652 52.5357 16.9972V16.3418H50.563C50.2357 16.3418 50.1175 16.2178 50.1175 15.9078V15.3055C50.1175 14.9955 50.2357 14.8803 50.563 14.8803H53.6448Z" fill="#394149"/>
<path d="M57.8359 13.9412C57.8359 11.8952 59.1632 10.6641 61.4723 10.6641C63.7814 10.6641 65.1087 11.8952 65.1087 13.9412V16.6692C65.1087 18.7152 63.7723 19.9463 61.4723 19.9463C59.1723 19.9463 57.8359 18.7152 57.8359 16.6692V13.9412ZM63.5723 13.9412C63.5723 12.7898 62.8359 12.1698 61.5178 12.1698C60.1996 12.1698 59.4541 12.7986 59.4541 13.9412V16.6869C59.4541 17.8472 60.1905 18.4583 61.5178 18.4583C62.845 18.4583 63.5723 17.8206 63.5723 16.6869V13.9412Z" fill="#394149"/>
<path d="M69.3906 11.1065C69.3906 10.9116 69.4543 10.8496 69.6543 10.8496H70.0724C70.2724 10.8496 70.3179 10.9116 70.3179 11.1065V19.503C70.3179 19.6979 70.3179 19.7599 70.0724 19.7599H69.6543C69.4543 19.7599 69.3906 19.6979 69.3906 19.503V11.1065Z" fill="#394149"/>
<path d="M78.5999 10.8496C79.3569 10.8496 80.0829 11.1426 80.6183 11.6642C81.1537 12.1857 81.4544 12.8931 81.4544 13.6308C81.4544 14.3684 81.1537 15.0758 80.6183 15.5973C80.0829 16.1189 79.3569 16.4119 78.5999 16.4119H75.8726V19.503C75.8726 19.6979 75.8271 19.7599 75.6362 19.7599H75.2089C75.018 19.7599 74.9453 19.6979 74.9453 19.503V11.1065C74.9453 10.9116 75.018 10.8496 75.2089 10.8496H78.5999ZM78.518 15.535C78.7783 15.535 79.036 15.4851 79.2765 15.3881C79.5169 15.291 79.7354 15.1488 79.9194 14.9695C80.1034 14.7902 80.2494 14.5773 80.349 14.3431C80.4486 14.1089 80.4999 13.8578 80.4999 13.6042C80.4999 13.3506 80.4486 13.0995 80.349 12.8652C80.2494 12.631 80.1034 12.4181 79.9194 12.2389C79.7354 12.0596 79.5169 11.9173 79.2765 11.8203C79.036 11.7233 78.7783 11.6733 78.518 11.6733H75.7908V15.535H78.518Z" fill="#394149"/>
<path d="M88.5556 10.6716C89.2575 10.5962 89.9655 10.7433 90.5748 11.0911C91.1837 11.439 91.6619 11.969 91.9374 12.6025C92.0101 12.7442 91.9374 12.8594 91.7919 12.9302L91.3919 13.1074C91.2283 13.1694 91.1646 13.1605 91.0646 12.9922C90.8586 12.5221 90.5045 12.1279 90.0535 11.8668C89.6025 11.6057 89.0778 11.4911 88.5556 11.5396C87.0192 11.5396 86.1828 12.1331 86.1828 13.1959C86.1739 13.5207 86.2858 13.8378 86.4981 14.0885C86.7103 14.3391 87.0084 14.5066 87.3374 14.5599C87.8263 14.7153 88.3333 14.8105 88.8465 14.8434C89.4676 14.8756 90.0805 14.998 90.6646 15.2065C91.1128 15.3446 91.4983 15.6285 91.7565 16.0108C92.0146 16.3931 92.1301 16.8503 92.0828 17.3056C92.0828 18.9619 90.8465 19.9628 88.5737 19.9628C87.8283 20.0459 87.0761 19.8776 86.4425 19.4859C85.809 19.0943 85.3323 18.503 85.0919 17.8105C85.0758 17.779 85.0672 17.7443 85.0665 17.7091C85.0657 17.6738 85.0731 17.6389 85.0878 17.6068C85.1025 17.5746 85.1245 17.546 85.1519 17.5231C85.1793 17.5001 85.2115 17.4833 85.2465 17.4739L85.6465 17.3322C85.6779 17.3196 85.7118 17.3136 85.7458 17.3145C85.7798 17.3154 85.8133 17.3232 85.8441 17.3373C85.8748 17.3515 85.9023 17.3717 85.9245 17.3968C85.9469 17.4218 85.9636 17.4511 85.9737 17.4828C86.1771 17.9831 86.5387 18.4074 87.0062 18.6941C87.4736 18.9807 88.0227 19.1149 88.5737 19.0771C90.2919 19.0771 91.1374 18.4925 91.1374 17.3056C91.1537 16.9937 91.0555 16.6863 90.8605 16.4381C90.6657 16.19 90.3869 16.0172 90.0737 15.9505C89.6034 15.8138 89.1183 15.7306 88.6283 15.7025L87.6465 15.5785C87.3392 15.515 87.0357 15.4351 86.7374 15.3394C86.4426 15.2526 86.1679 15.1113 85.9283 14.9231C85.6871 14.7103 85.497 14.4485 85.3713 14.1561C85.2456 13.8638 85.1875 13.5481 85.201 13.2314C85.2646 11.6814 86.4556 10.6716 88.5556 10.6716Z" fill="#394149"/>
<path d="M96.9813 16.7308C97.0195 17.3571 97.3022 17.9455 97.7713 18.3757C98.2404 18.8059 98.8604 19.0454 99.504 19.0454C100.148 19.0454 100.768 18.8059 101.237 18.3757C101.706 17.9455 101.988 17.3571 102.027 16.7308V11.1065C102.027 10.9116 102.09 10.8496 102.29 10.8496H102.709C102.909 10.8496 102.972 10.9116 102.972 11.1065V16.7219C102.972 18.7325 101.754 19.9459 99.5086 19.9459C97.2631 19.9459 96.0449 18.7325 96.0449 16.7219V11.1065C96.0449 10.9116 96.1086 10.8496 96.2995 10.8496H96.7267C96.9176 10.8496 96.9813 10.9116 96.9813 11.1065V16.7308Z" fill="#394149"/>
<path d="M115.519 10.8492C115.719 10.8492 115.783 10.9112 115.783 11.106V19.5026C115.783 19.6975 115.719 19.7595 115.519 19.7595H115.138C114.947 19.7595 114.883 19.6975 114.883 19.5026V14.392C114.883 13.6485 114.935 12.9057 115.038 12.1689H114.983C114.699 12.8426 114.368 13.4967 113.992 14.1263L112.038 17.4832C112.014 17.5414 111.972 17.5912 111.919 17.626C111.865 17.6608 111.802 17.6789 111.738 17.678H111.483C111.418 17.6784 111.354 17.66 111.299 17.6255C111.244 17.5909 111.2 17.5414 111.174 17.4832L109.192 14.0909C108.84 13.4703 108.537 12.8248 108.283 12.16H108.229C108.321 12.9036 108.37 13.6518 108.374 14.4009V19.5026C108.374 19.6975 108.31 19.7595 108.11 19.7595H107.756C107.556 19.7595 107.492 19.6975 107.492 19.5026V11.106C107.492 10.9112 107.556 10.8492 107.756 10.8492H108.083C108.158 10.8424 108.233 10.8583 108.298 10.8948C108.363 10.9313 108.415 10.9865 108.447 11.0529L111.629 16.562L114.792 11.106C114.892 10.92 114.947 10.8935 115.147 10.8935L115.519 10.8492Z" fill="#394149"/>
<path d="M11.5731 18.4151V24.8188C11.5731 25.0643 11.473 25.2997 11.2948 25.4732C11.1167 25.6468 10.8751 25.7443 10.6231 25.7443C10.3712 25.7443 10.1295 25.6468 9.95136 25.4732C9.77317 25.2997 9.67308 25.0643 9.67308 24.8188V18.4239C9.93763 18.6121 10.2547 18.7172 10.5822 18.7251C10.9391 18.735 11.2888 18.6256 11.5731 18.4151ZM19.664 16.5639C19.4229 16.5639 19.1916 16.6573 19.0212 16.8233C18.8507 16.9894 18.7549 17.2147 18.7549 17.4496V18.5656C18.7549 18.8112 18.855 19.0466 19.0332 19.2201C19.2113 19.3937 19.4529 19.4912 19.7049 19.4912C19.9569 19.4912 20.1985 19.3937 20.3766 19.2201C20.5548 19.0466 20.6549 18.8112 20.6549 18.5656V17.4939C20.662 17.3669 20.6409 17.2399 20.5931 17.1216C20.5453 17.0032 20.4719 16.8962 20.3778 16.808C20.2838 16.7198 20.1714 16.6523 20.0483 16.6102C19.9251 16.5681 19.794 16.5523 19.664 16.5639ZM7.60945 20.8419C7.28233 20.8324 6.96566 20.7275 6.70036 20.5408V26.9622C6.70036 27.2089 6.80092 27.4454 6.97994 27.6198C7.15895 27.7942 7.40174 27.8922 7.6549 27.8922C7.90806 27.8922 8.15086 27.7942 8.32986 27.6198C8.50888 27.4454 8.60945 27.2089 8.60945 26.9622V20.5851C8.31258 20.772 7.96232 20.862 7.60945 20.8419ZM16.7004 14.6419C16.5772 14.6359 16.4541 14.6544 16.3384 14.6962C16.2229 14.738 16.1173 14.8023 16.0279 14.8851C15.9386 14.968 15.8676 15.0677 15.8191 15.1781C15.7706 15.2886 15.7456 15.4075 15.7458 15.5276V20.4611C15.7458 20.7077 15.8464 20.9443 16.0254 21.1187C16.2044 21.2931 16.4472 21.3911 16.7004 21.3911C16.9535 21.3911 17.1964 21.2931 17.3754 21.1187C17.5544 20.9443 17.6549 20.7077 17.6549 20.4611V15.5896C17.6622 15.4618 17.6409 15.334 17.5925 15.215C17.5442 15.0959 17.47 14.9885 17.3749 14.9001C17.2798 14.8117 17.1663 14.7444 17.042 14.7029C16.9177 14.6614 16.7856 14.6466 16.6549 14.6596L16.7004 14.6419ZM13.6822 16.5373C13.3397 16.535 13.0064 16.4299 12.7276 16.2362V22.6753C12.7276 22.922 12.8282 23.1586 13.0072 23.333C13.1863 23.5074 13.429 23.6053 13.6822 23.6053C13.9354 23.6053 14.1781 23.5074 14.3572 23.333C14.5362 23.1586 14.6367 22.922 14.6367 22.6753V16.2451C14.3484 16.4544 13.9963 16.5635 13.6367 16.5551L13.6822 16.5373ZM5.54581 21.4708V3.48192C5.54342 3.26264 5.45233 3.05315 5.29233 2.89892C5.13233 2.74469 4.91634 2.65819 4.69126 2.6582H4.49126C4.26619 2.65819 4.0502 2.74469 3.8902 2.89892C3.7302 3.05315 3.63911 3.26264 3.63672 3.48192V21.4708C3.63672 21.6916 3.72676 21.9034 3.88701 22.0595C4.04726 22.2157 4.26463 22.3033 4.49126 22.3033H4.69126C4.91791 22.3033 5.13526 22.2157 5.29552 22.0595C5.45578 21.9034 5.54581 21.6916 5.54581 21.4708ZM7.70945 20.1599H7.50945C7.28281 20.1599 7.06545 20.0722 6.90519 19.9161C6.74494 19.7599 6.6549 19.5482 6.6549 19.3273V5.62535C6.6573 5.40608 6.74838 5.19657 6.90838 5.04235C7.06838 4.88812 7.28437 4.80162 7.50945 4.80163H7.70945C7.93452 4.80162 8.15051 4.88812 8.31051 5.04235C8.47051 5.19657 8.5616 5.40608 8.56399 5.62535V19.3451C8.56399 19.5659 8.47396 19.7776 8.3137 19.9338C8.15345 20.0899 7.93608 20.1776 7.70945 20.1776V20.1599ZM10.7185 18.0519H10.5094C10.2853 18.0519 10.0702 17.9651 9.91163 17.8106C9.75308 17.6562 9.66399 17.4467 9.66399 17.2282V7.75106C9.66281 7.64214 9.68381 7.53408 9.72572 7.43312C9.76763 7.33215 9.82972 7.2403 9.90836 7.16288C9.98699 7.08545 10.0806 7.02398 10.1838 6.98203C10.287 6.94008 10.3976 6.91848 10.5094 6.91849H10.7185C10.9436 6.92083 11.1586 7.00957 11.3169 7.16545C11.4753 7.32134 11.564 7.53177 11.564 7.75106V17.2282C11.564 17.4467 11.4749 17.6562 11.3164 17.8106C11.1578 17.9651 10.9428 18.0519 10.7185 18.0519ZM13.7276 15.8819H13.5367C13.3116 15.8819 13.0956 15.7955 12.9356 15.6412C12.7756 15.487 12.6845 15.2775 12.6822 15.0582V9.95649C12.6747 9.84276 12.6913 9.72877 12.7309 9.62151C12.7704 9.51434 12.8323 9.41611 12.9124 9.33312C12.9924 9.25004 13.0892 9.18397 13.1966 9.1388C13.304 9.09371 13.4197 9.07051 13.5367 9.07077H13.7367C13.9634 9.07077 14.1807 9.15846 14.341 9.31461C14.5013 9.47076 14.5913 9.68254 14.5913 9.90335V15.0405C14.5924 15.1506 14.5713 15.2598 14.5288 15.3618C14.4864 15.4639 14.4237 15.5567 14.3442 15.635C14.2647 15.7132 14.1702 15.7753 14.0658 15.8177C13.9615 15.8601 13.8497 15.8819 13.7367 15.8819H13.7276ZM16.7458 13.9776H16.5458C16.3192 13.9776 16.1018 13.8899 15.9415 13.7338C15.7813 13.5776 15.6913 13.3659 15.6913 13.1451V11.8253C15.6936 11.606 15.7847 11.3966 15.9447 11.2424C16.1047 11.0881 16.3207 11.0016 16.5458 11.0016H16.7458C16.9709 11.0016 17.1869 11.0881 17.3469 11.2424C17.5069 11.3966 17.598 11.606 17.6004 11.8253V13.1451C17.6004 13.3644 17.5116 13.5748 17.3533 13.7307C17.195 13.8866 16.98 13.9753 16.7549 13.9776H16.7458Z" fill="#394149"/>
</svg>
