<?xml version="1.0" encoding="UTF-8"?>
<svg id="Layer_1" data-name="Layer 1" xmlns="http://www.w3.org/2000/svg" viewBox="0 0 780.76 205.81">
  <defs>
    <style>
      .cls-1 {
        fill: #8dc63f;
      }

      .cls-2 {
        fill: #2bb673;
      }

      .cls-3 {
        fill: #006838;
      }
    </style>
  </defs>
  <path class="cls-2" d="M283.02,124.94c-9.72,6.95-19.79,10.84-30.23,11.66-10.43.82-20.36-1.08-29.79-5.71-9.43-4.62-17.41-11.5-23.95-20.64-6.79-9.49-10.74-19.42-11.88-29.8-1.13-10.38.35-20.23,4.44-29.54,4.09-9.31,10.54-17.11,19.33-23.4,7.4-5.3,14.81-8.76,22.22-10.38,7.4-1.62,14.58-1.68,21.52-.18,6.94,1.51,13.41,4.27,19.43,8.27,6.01,4.01,11.3,9.19,15.85,15.55,1.24,1.74,2.37,3.55,3.38,5.45,1.01,1.9,1.8,3.61,2.36,5.13l-72.71,52.02-12.54-17.53,59.69-42.7-4.92,15.85c-2.65-6.15-6.22-10.72-10.73-13.71-4.5-2.99-9.41-4.41-14.74-4.28-5.33.14-10.42,1.94-15.27,5.42-4.86,3.48-8.23,7.69-10.12,12.62-1.89,4.94-2.18,10.34-.86,16.22,1.32,5.88,4.43,11.87,9.33,17.99,3.76,6.23,8.22,10.82,13.39,13.77,5.17,2.95,10.64,4.24,16.41,3.87,5.77-.37,11.26-2.42,16.46-6.14,5.21-3.72,8.82-8.02,10.85-12.88,2.03-4.86,2.8-9.83,2.32-14.91l24.85-4.14c1.41,5.64,1.38,11.65-.09,18.03-1.47,6.39-4.22,12.51-8.25,18.36-4.03,5.86-9.29,11.1-15.76,15.74Z"/>
  <path class="cls-2" d="M355.79,128.83c-11.73,0-20.83-3.25-27.33-9.74-6.5-6.5-9.75-15.54-9.75-27.14v-43.96c0-1.06-.86-1.91-1.92-1.91h-14.14c-1.06,0-1.91-.85-1.91-1.91v-18.54c0-1.06.85-1.91,1.91-1.91h0c5.1,0,9.05-1.34,11.85-4.02,2.8-2.68,4.2-6.62,4.2-11.85V1.91c0-1.06.86-1.91,1.91-1.91h21.41c1.06,0,1.91.85,1.91,1.91v19.88c0,1.06.86,1.91,1.91,1.91l26.48.04c1.06,0,1.91.86,1.91,1.91v18.54c0,1.06-.85,1.91-1.91,1.91l-26.48-.04c-1.06,0-1.91.86-1.91,1.91v42.43c0,3.7.61,6.72,1.82,9.08,1.21,2.36,3.15,4.17,5.83,5.45,2.68,1.27,5.93,1.91,9.75,1.91,1.02,0,2.13-.06,3.34-.19.48-.05.96-.1,1.43-.15,1.13-.12,2.11.76,2.11,1.9v17.8c0,.96-.7,1.78-1.66,1.9-1.29.16-2.74.31-4.36.44-2.36.19-4.49.29-6.4.29Z"/>
  <path class="cls-2" d="M389.98,117.54V25.8c-.01-3.38,2.73-6.12,6.11-6.12h11.66c3.38,0,6.12,2.74,6.12,6.11v17.01s-.63-1.03-.63-1.03c-.96-1.57-1.18-3.51-.55-5.24,2.33-6.39,5.78-10.89,10.35-13.52,5.22-2.99,11.47-4.49,18.73-4.49h0c3.38,0,6.12,2.74,6.12,6.12v10.13c0,3.38-2.74,6.12-6.11,6.12h-2.87c-7.01,0-12.71,2.17-17.11,6.5-4.4,4.33-6.59,10.45-6.59,18.35v51.8c0,3.38-2.73,6.12-6.11,6.12h-13c-3.38,0-6.12-2.74-6.12-6.11Z"/>
  <path class="cls-2" d="M471.29,127.1c-7.26,0-13.6-1.24-19.02-3.72-5.42-2.48-9.59-5.95-12.52-10.42-2.93-4.46-4.4-9.75-4.4-15.86,0-5.61,1.3-10.67,3.92-15.2,2.61-4.52,6.59-8.32,11.95-11.37,5.35-3.06,12.04-5.22,20.07-6.5l32.12-5.21c1.1-.18,2.09.67,2.09,1.78v15.48c0,.88-.63,1.63-1.49,1.78l-27.75,4.9c-4.97.76-8.67,2.29-11.09,4.59-2.42,2.29-3.63,5.29-3.63,8.98,0,3.44,1.37,6.24,4.11,8.41,2.74,2.17,6.15,3.25,10.23,3.25,5.22,0,9.84-1.15,13.86-3.44,4.01-2.29,7.13-5.38,9.36-9.27,2.23-3.89,3.34-8.12,3.34-12.71v-26.95c0-4.46-1.76-8.15-5.26-11.09-3.51-2.93-8.19-4.4-14.05-4.39-5.23,0-9.88,1.43-13.95,4.3-3.61,2.54-6.42,5.74-8.43,9.63-.44.86-1.5,1.19-2.37.77l-17.32-8.41c-.85-.41-1.26-1.42-.89-2.29,2.05-4.82,5.06-9.05,9.03-12.68,4.4-4.01,9.59-7.17,15.58-9.46,5.99-2.29,12.49-3.44,19.5-3.44,8.54,0,16.06,1.56,22.56,4.68,6.5,3.12,11.56,7.49,15.2,13.09,3.63,5.61,5.45,12.04,5.45,19.3v67.39c0,1-.8,1.8-1.8,1.8h-20.09c-1,0-1.8-.81-1.8-1.8v-14.23c0-.97.77-1.77,1.74-1.8h0c1.5-.05,2.43,1.66,1.53,2.87-2.3,3.07-4.85,5.76-7.66,8.09-3.7,3.06-7.87,5.35-12.52,6.88-4.65,1.53-9.84,2.29-15.58,2.3Z"/>
  <path class="cls-2" d="M610.63,121.78c-8.26,6.19-17.08,9.83-26.47,10.89-9.39,1.07-18.46-.25-27.22-3.96-8.75-3.71-16.23-9.69-22.42-17.95-6.19-8.26-9.82-17.08-10.89-26.47-1.07-9.39.24-18.42,3.94-27.08,3.7-8.66,9.67-16.09,17.93-22.29,6.01-4.51,12.33-7.66,18.96-9.44,6.63-1.78,13.17-2.19,19.63-1.22,6.46.97,12.39,3.25,17.8,6.84l-11.85,20.83c-4.77-2.95-9.89-4.32-15.39-4.11-5.49.22-10.58,2.08-15.27,5.6-4.18,3.14-7.18,7.05-8.98,11.76-1.81,4.7-2.29,9.69-1.45,14.95.84,5.26,3.06,10.29,6.65,15.08,3.67,4.89,7.91,8.48,12.73,10.76,4.82,2.28,9.73,3.21,14.76,2.79,5.02-.42,9.62-2.2,13.8-5.33,4.79-3.59,8.03-7.97,9.73-13.15,1.69-5.17,1.75-10.51.17-16.02l23.43-5.39c1.89,5.91,2.37,12.08,1.45,18.5s-3.12,12.62-6.61,18.58c-3.49,5.96-8.3,11.24-14.41,15.83Z"/>
  <path class="cls-2" d="M630.11,130.3V11.88c-.02-.87.69-1.57,1.55-1.57h22.09c.87,0,1.57.7,1.57,1.57v67.99c0,1.05-1,1.8-2.01,1.5l-5.09-1.53c-1.12-.34-1.49-1.74-.68-2.59l46.69-48.89c.3-.31.71-.49,1.13-.49h26.92c1.37,0,2.08,1.62,1.16,2.63l-35.19,38.35c-.48.52-.55,1.3-.17,1.9l37.03,58.7c.66,1.04-.09,2.41-1.33,2.41h-25.15c-.54,0-1.04-.28-1.33-.73l-31.99-51.06c-.58-.93-.06-2.15,1.01-2.37l7.68-1.6c1.5-.31,2.51,1.49,1.47,2.61l-20.57,22.07c-1.23,1.33-3.36-.15-2.55-1.77h0c.74-1.48,2.97-.95,2.97.7v30.59c0,.87-.7,1.57-1.57,1.57h-22.09c-.87,0-1.57-.7-1.57-1.57Z"/>
  <path class="cls-3" d="M780.76,145.41l-41.26-16.87c-.57-.23-1.2.18-1.22.79-.3.45.45,13.93-1.19,13.25-123.1,4.92-419,9.25-544.1,14.37,0,0-1.1,41.17-1.1,41.17-.01.53.44.95.96.9,38.15-4.91,569.06-49.81,587.9-53.61Z"/>
  <path class="cls-1" d="M155.27,10.31H15.69C7.02,10.31,0,18.06,0,27.62v114.27l92.68-36.67-21.23-24.71,76.03-3.68L23.58,173.63.22,191.3c1.21,8.23,7.67,14.51,15.46,14.51h139.59c8.66,0,15.69-7.75,15.69-17.31V27.62c0-9.56-7.02-17.31-15.69-17.31Z"/>
  <polygon class="cls-2" points="332.74 91.6 287.27 100.31 283.12 76.85 330.04 68.55 332.74 91.6"/>
  <rect class="cls-2" x="358.1" y="104.62" width="53.54" height="21.42" rx="6.54" ry="6.54" transform="translate(-10.06 41.48) rotate(-6.09)"/>
</svg>